<?xml version="1.0" encoding="UTF-8" standalone="no"?>
<!DOCTYPE svg PUBLIC "-//W3C//DTD SVG 1.1//EN" "http://www.w3.org/Graphics/SVG/1.1/DTD/svg11.dtd">
<svg width="100%" height="100%" viewBox="0 0 585 368" version="1.1" xmlns="http://www.w3.org/2000/svg" xmlns:xlink="http://www.w3.org/1999/xlink" xml:space="preserve" xmlns:serif="http://www.serif.com/" style="fill-rule:evenodd;clip-rule:evenodd;stroke-linejoin:round;stroke-miterlimit:2;">
    <g>
        <path d="M205.817,85.908C205.817,38.494 244.59,0 292.347,0C340.105,0 378.877,38.494 378.877,85.908L566.98,85.908C576.763,85.908 584.695,93.839 584.695,103.623C584.695,145.211 584.695,248.418 584.695,286.122C584.695,294.365 579.01,301.518 570.98,303.379C517.77,315.712 326.453,360.056 296.347,367.034C293.716,367.644 290.979,367.644 288.347,367.034C258.242,360.056 66.925,315.712 13.715,303.379C5.685,301.518 0,294.365 0,286.122C0,248.418 0,145.211 0,103.623C0,93.839 7.931,85.908 17.715,85.908L205.817,85.908Z" style="fill:rgb(219,25,62);"/>
        <path d="M207.578,103.219C207.868,104.623 208.192,106.015 208.551,107.394L35.026,107.394C31.435,107.394 27.991,108.821 25.452,111.36C22.913,113.899 21.487,117.343 21.487,120.934C21.487,157.311 21.487,239.781 21.487,272.824C21.487,279.124 25.832,284.591 31.969,286.014C82.99,297.839 260.372,338.952 289.29,345.655C291.302,346.121 293.393,346.121 295.404,345.655C324.323,338.952 501.705,297.839 552.726,286.014C558.863,284.591 563.208,279.124 563.208,272.824C563.208,239.781 563.208,157.311 563.208,120.934C563.208,117.343 561.782,113.899 559.242,111.36C556.703,108.821 553.259,107.394 549.669,107.394L376.144,107.394C376.502,106.016 376.827,104.624 377.117,103.219L549.669,103.219C554.367,103.219 558.873,105.085 562.195,108.407C565.517,111.73 567.384,116.236 567.384,120.934C567.384,157.311 567.384,239.781 567.384,272.824C567.384,281.067 561.699,288.22 553.669,290.082C502.647,301.907 325.266,343.02 296.347,349.723C293.716,350.333 290.979,350.333 288.347,349.723C259.429,343.02 82.047,301.907 31.026,290.082C22.996,288.22 17.311,281.067 17.311,272.824C17.311,239.781 17.311,157.311 17.311,120.934C17.311,116.236 19.177,111.73 22.5,108.407C25.822,105.085 30.328,103.219 35.026,103.219L207.578,103.219Z" style="fill:white;"/>
        <path d="M355.945,77.895C355.136,77.579 353.612,79.395 352.541,81.953L346.84,95.522C345.869,97.836 344.636,99.558 344.099,99.349C343.562,99.139 343.917,97.074 344.886,94.76L350.587,81.189C351.659,78.632 351.871,76.303 351.062,75.987C350.254,75.672 348.729,77.489 347.657,80.044L347.657,80.046L341.957,93.616C340.986,95.93 339.753,97.651 339.215,97.44C338.679,97.232 339.033,95.166 340.003,92.852L345.703,79.281C346.775,76.725 346.988,74.395 346.179,74.08C345.37,73.764 343.845,75.581 342.773,78.137L337.073,91.707C336.104,94.021 334.87,95.743 334.333,95.534L334.332,95.534C333.795,95.323 334.15,93.258 335.12,90.944L340.819,77.374L340.821,77.374C341.891,74.817 342.105,72.488 341.295,72.173C340.487,71.857 338.962,73.673 337.891,76.229C334.901,81.876 332.961,85.587 331.414,88.938L329.45,93.626C327.883,97.365 328.093,101.292 329.682,104.289C320.968,116.217 307.113,123.327 292.356,123.341C276.937,123.354 262.477,115.54 253.874,102.628C256.324,98.332 256.666,92.041 254.321,85.877C250.771,76.551 242.415,71.057 235.657,73.606C228.898,76.154 226.297,85.78 229.847,95.107C233.04,103.498 240.126,108.784 246.437,107.902C256.75,123.213 273.982,132.6 292.356,132.579C310.187,132.56 326.91,123.787 337.32,109.277C341.986,109.559 346.823,106.408 348.982,101.256L350.946,96.568C352.25,93.124 353.548,89.162 355.468,83.101C355.468,83.1 355.469,83.099 355.469,83.098C356.541,80.54 356.754,78.212 355.945,77.895ZM271.72,102.646L274.15,102.646C276.181,102.646 277.826,101.019 277.826,99.012L277.826,63.841L277.829,63.841C277.864,59.812 281.176,56.556 285.259,56.556C287.179,56.556 288.93,57.276 290.249,58.457L290.27,58.477C291.657,59.712 293.728,59.712 295.114,58.478L295.136,58.457C296.455,57.276 298.205,56.556 300.126,56.556C304.209,56.556 307.521,59.812 307.554,63.841L307.558,63.841L307.558,99.012C307.558,101.019 309.204,102.646 311.235,102.646L313.665,102.646C315.696,102.646 317.342,101.019 317.342,99.012L317.342,61.802C317.342,56.558 313.407,50.453 308.542,48.363C303.44,46.171 298.422,46.555 294.406,48.593C293.324,49.142 292.061,49.142 290.98,48.593C286.962,46.555 281.946,46.171 276.842,48.363C271.979,50.453 268.043,56.558 268.043,61.802L268.043,99.012C268.043,101.019 269.689,102.646 271.72,102.646ZM291.374,69.036C289.401,69.036 287.8,70.666 287.8,72.676L287.8,99.006C287.8,101.016 289.401,102.646 291.374,102.646L294.01,102.646C295.985,102.646 297.584,101.016 297.584,99.006L297.584,72.676C297.584,70.666 295.985,69.036 294.01,69.036L291.374,69.036Z" style="fill:white;fill-rule:nonzero;"/>
        <path d="M292.347,12.01C250.701,12.01 216.912,45.135 216.912,85.908C216.912,126.68 250.701,159.805 292.347,159.805C333.994,159.805 367.783,126.68 367.783,85.908C367.783,45.135 333.994,12.01 292.347,12.01ZM292.347,16.226C331.643,16.226 363.567,47.437 363.567,85.908C363.567,124.379 331.643,155.59 292.347,155.59C253.052,155.59 221.127,124.379 221.127,85.908C221.127,47.437 253.052,16.226 292.347,16.226Z" style="fill:white;"/>
        <circle cx="540.293" cy="261.123" r="8.571" style="fill:white;"/>
        <path d="M148.566,239.338C149.008,241.345 149.658,243.184 150.525,244.853C151.807,247.322 153.449,249.41 155.459,251.109C157.47,252.81 159.797,254.086 162.433,254.945C165.159,255.834 168.102,256.272 171.259,256.272C173.475,256.272 175.764,256.07 178.128,255.67C180.517,255.265 182.981,254.637 185.52,253.789C186.901,253.327 188.411,253.968 189.038,255.283L190.994,259.383C191.599,260.653 191.202,262.174 190.052,262.984C188.276,264.236 186.37,265.31 184.334,266.205C182.335,267.083 180.272,267.797 178.145,268.346C176.045,268.888 173.903,269.289 171.719,269.549C169.548,269.808 167.419,269.937 165.332,269.937C160.663,269.937 156.131,269.18 151.738,267.669C147.283,266.135 143.323,263.834 139.858,260.767C136.384,257.693 133.592,253.867 131.499,249.278C129.426,244.733 128.364,239.421 128.364,233.332C128.364,228.108 129.193,223.315 130.829,218.948C132.497,214.499 134.906,210.669 138.045,207.45C141.183,204.232 145.019,201.709 149.564,199.899C154.028,198.122 159.085,197.216 164.739,197.216C169.107,197.216 173.012,197.955 176.463,199.398C179.956,200.859 182.914,202.831 185.346,205.296C187.794,207.778 189.664,210.649 190.954,213.911C192.235,217.147 192.876,220.52 192.876,224.03C192.876,225.652 192.745,227.274 192.483,228.896C192.188,230.722 191.615,232.368 190.78,233.838C189.872,235.439 188.596,236.756 186.94,237.777C185.324,238.772 183.23,239.338 180.625,239.338L148.566,239.338ZM305.398,218.076L302.06,213.955C299.825,211.151 298.229,208.361 297.243,205.601C296.233,202.776 295.741,200.064 295.741,197.47C295.741,193.978 296.532,190.711 298.109,187.667C299.644,184.705 301.678,182.134 304.213,179.953C306.717,177.799 309.592,176.105 312.843,174.881C316.093,173.656 319.475,173.043 322.988,173.043C326.673,173.043 329.982,173.59 332.921,174.654C335.969,175.757 338.544,177.33 340.659,179.349C342.792,181.386 344.436,183.833 345.583,186.698C346.7,189.489 347.272,192.588 347.272,196.001C347.272,199.278 346.663,202.17 345.49,204.686C344.345,207.143 342.766,209.394 340.746,211.434C338.832,213.366 336.582,215.18 333.988,216.87C332.408,217.899 330.746,218.933 328.999,219.97C329.966,221.136 330.944,222.336 331.935,223.568C333.676,225.733 335.426,227.918 337.187,230.124C338.946,232.327 340.704,234.53 342.462,236.734L344.671,239.502C344.943,238.732 345.179,237.944 345.379,237.135C345.954,234.818 346.243,232.51 346.243,230.211C346.243,227.681 345.921,225.385 345.256,223.325C344.806,221.93 345.473,220.418 346.809,219.812L354.196,216.456C355.703,215.716 357.084,215.392 358.316,215.392C360.734,215.392 362.629,216.422 363.976,218.527C365.002,220.13 365.587,222.217 365.587,224.825C365.587,226.714 365.297,228.822 364.695,231.148C364.12,233.369 363.261,235.701 362.111,238.142C360.989,240.523 359.609,242.958 357.968,245.446C356.767,247.267 355.439,249.053 353.982,250.803C354.381,251.275 354.785,251.748 355.195,252.223C356.146,253.325 357.068,254.367 357.961,255.349C358.856,256.334 359.703,257.249 360.501,258.093C361.245,258.88 361.888,259.518 362.433,260.005C363.549,261.004 363.715,262.69 362.816,263.888C359.673,268.075 356.259,269.937 352.862,269.937C349.385,269.937 345.982,268.191 342.871,264.358L341.248,262.389C338.395,264.421 335.416,266.085 332.314,267.387C328.273,269.082 323.921,269.937 319.254,269.937C315.101,269.937 311.161,269.397 307.432,268.325C303.584,267.219 300.21,265.53 297.302,263.272C294.337,260.971 291.983,258.108 290.244,254.679C288.515,251.268 287.62,247.257 287.62,242.634C287.62,239.254 288.241,236.23 289.446,233.555C290.626,230.933 292.208,228.575 294.19,226.482C296.092,224.475 298.301,222.63 300.822,220.954C302.301,219.971 303.826,219.011 305.398,218.076ZM383.785,221.704C383.785,228.999 384.847,235.583 386.946,241.462C389.083,247.447 392.139,252.541 396.095,256.756C400.072,260.994 404.875,264.26 410.512,266.543C416.071,268.796 422.289,269.937 429.17,269.937C432.095,269.937 435.009,269.756 437.914,269.395C440.852,269.029 443.729,268.437 446.542,267.619C449.38,266.794 452.113,265.72 454.741,264.396C457.393,263.06 459.908,261.428 462.285,259.501C463.342,258.643 463.656,257.164 463.038,255.951L460.608,251.177C459.934,249.853 458.364,249.257 456.98,249.801C454.588,250.742 452.082,251.565 449.462,252.271C447.149,252.907 444.602,253.48 441.807,253.994C439.094,254.493 436.344,254.742 433.556,254.742C430.361,254.742 427.433,254.325 424.776,253.472C422.15,252.629 419.787,251.461 417.693,249.959C415.599,248.456 413.771,246.669 412.209,244.599C410.612,242.481 409.28,240.148 408.209,237.599C407.122,235.012 406.313,232.263 405.779,229.353C405.237,226.402 404.967,223.383 404.967,220.297C404.967,217.748 405.119,215.111 405.423,212.385C405.723,209.699 406.219,207.08 406.911,204.529C407.59,202.029 408.488,199.671 409.607,197.455C410.671,195.347 411.985,193.498 413.556,191.912C415.078,190.376 416.864,189.165 418.911,188.274C420.968,187.379 423.343,186.953 426.028,186.953C428.35,186.953 430.593,187.328 432.759,188.079C435.077,188.883 437.247,189.83 439.269,190.921C441.319,192.028 443.19,193.173 444.883,194.357C446.752,195.665 448.374,196.703 449.745,197.475C451.123,198.251 452.869,197.773 453.66,196.403L458.639,187.774C458.648,187.759 458.656,187.744 458.664,187.729C459.413,186.376 459.736,185.105 459.736,183.945C459.736,182.134 459.021,180.485 457.441,179.072C456.339,178.085 454.904,177.206 453.115,176.472C451.534,175.823 449.726,175.271 447.69,174.824C445.748,174.397 443.754,174.056 441.709,173.8C439.695,173.548 437.722,173.359 435.789,173.233C433.842,173.106 432.109,173.043 430.593,173.043C422.961,173.043 416.26,174.194 410.484,176.455C404.585,178.763 399.661,182.061 395.699,186.327C391.754,190.576 388.763,195.727 386.747,201.793C384.78,207.714 383.785,214.35 383.785,221.704ZM534.608,233.454C534.608,228.034 533.687,223.112 531.873,218.683C530.042,214.211 527.524,210.389 524.335,207.208C521.138,204.019 517.382,201.551 513.062,199.812C508.775,198.086 504.169,197.216 499.24,197.216C494.272,197.216 489.638,198.086 485.334,199.81C480.991,201.55 477.223,204.018 474.026,207.208C470.84,210.386 468.314,214.204 466.463,218.672C464.626,223.104 463.694,228.03 463.694,233.454C463.694,238.842 464.628,243.73 466.467,248.123C468.319,252.549 470.845,256.336 474.033,259.493C477.229,262.659 480.994,265.115 485.334,266.854C489.638,268.578 494.272,269.447 499.24,269.447C504.124,269.447 508.706,268.59 512.99,266.887C517.309,265.171 521.075,262.727 524.292,259.561C527.506,256.398 530.037,252.593 531.871,248.138C533.687,243.728 534.608,238.835 534.608,233.454ZM239.346,210.881L231.799,210.881C230.206,210.881 228.914,209.59 228.914,207.996L228.914,203.406C228.914,202.264 229.588,201.23 230.632,200.768C231.594,200.342 232.942,199.925 234.684,199.546C236.273,199.201 238.018,198.919 239.921,198.703C241.764,198.494 243.647,198.327 245.571,198.201C247.517,198.075 249.288,198.012 250.886,198.012C251.786,198.012 252.579,198.035 253.265,198.079C254.31,198.146 255.186,198.376 255.905,198.713C256.939,199.198 257.714,199.95 258.231,200.969C258.602,201.7 258.869,202.747 258.869,204.141L258.869,255.66L266.297,255.66C267.891,255.66 269.183,256.951 269.183,258.545L269.183,263.135C269.183,264.19 268.607,265.161 267.681,265.667C266.86,266.115 265.743,266.555 264.319,266.954C263.066,267.304 261.676,267.613 260.148,267.876C258.642,268.135 257.073,268.329 255.441,268.459C253.821,268.588 252.263,268.652 250.767,268.652C249.398,268.652 248.14,268.57 246.991,268.41C245.579,268.214 244.349,267.806 243.29,267.217C242.05,266.528 241.083,265.575 240.383,264.361C239.74,263.243 239.346,261.764 239.346,259.891L239.346,210.881ZM201.637,180.711L194.031,180.711C192.438,180.711 191.146,179.419 191.146,177.826L191.146,173.175C191.146,172.033 191.819,170.998 192.864,170.536C193.827,170.11 195.187,169.692 196.953,169.313C198.559,168.969 200.301,168.688 202.179,168.472C204.003,168.263 205.877,168.096 207.803,167.97C209.748,167.843 211.52,167.78 213.118,167.78C214.018,167.78 214.811,167.803 215.497,167.847C216.542,167.915 217.418,168.145 218.137,168.482C219.17,168.967 219.946,169.719 220.462,170.737C220.833,171.469 221.101,172.516 221.101,173.909L221.101,255.66L228.529,255.66C230.122,255.66 231.414,256.951 231.414,258.545L231.414,263.135C231.414,264.19 230.839,265.161 229.913,265.667C229.092,266.115 227.975,266.555 226.551,266.954C225.298,267.304 223.908,267.613 222.379,267.876C220.873,268.135 219.305,268.329 217.673,268.459C216.053,268.588 214.495,268.652 212.999,268.652C211.63,268.652 210.371,268.57 209.223,268.41C207.796,268.212 206.566,267.797 205.523,267.202C204.321,266.516 203.371,265.569 202.674,264.361C202.031,263.243 201.637,261.764 201.637,259.891L201.637,180.711ZM44.653,189.643C43.656,189.664 42.729,189.685 41.874,189.706C40.401,189.747 39.067,189.778 37.872,189.799C36.654,189.819 36.025,189.83 35.985,189.83C34.391,189.83 33.099,188.538 33.099,186.944L33.099,182.048C33.099,180.811 33.888,179.711 35.06,179.315C37.457,178.505 40.379,177.764 43.829,177.103C47.197,176.458 50.838,175.916 54.751,175.478C58.636,175.044 62.672,174.713 66.858,174.486C71.041,174.258 75.114,174.145 79.077,174.145C86.325,174.145 92.679,175.026 98.146,176.758C103.84,178.562 108.588,181.426 112.406,185.323C116.2,189.196 119.074,194.173 120.982,200.282C122.815,206.15 123.751,213.228 123.751,221.521C123.751,229.34 122.656,236.091 120.513,241.784C118.318,247.615 115.245,252.436 111.323,256.265C107.384,260.111 102.719,262.966 97.324,264.823C92.058,266.635 86.313,267.55 80.085,267.55C80.085,267.55 52.048,267.55 52.048,267.55C49.131,267.55 47.241,266.606 46.171,265.3C45.199,264.115 44.539,262.262 44.539,259.647L44.653,189.643ZM484.106,233.332C484.106,230.021 484.35,226.827 484.84,223.75C485.297,220.883 486.12,218.348 487.332,216.153C488.455,214.121 489.963,212.497 491.866,211.288C493.773,210.077 496.241,209.535 499.24,209.535C502.202,209.535 504.65,210.078 506.554,211.288C508.445,212.49 509.929,214.103 511.012,216.122C512.194,218.326 513.003,220.871 513.461,223.75C513.952,226.827 514.196,230.021 514.196,233.332C514.196,236.643 513.952,239.837 513.461,242.914C513.003,245.792 512.194,248.337 511.012,250.541C509.929,252.561 508.445,254.174 506.554,255.375C504.65,256.585 502.202,257.128 499.24,257.128C496.241,257.128 493.773,256.587 491.866,255.375C489.963,254.166 488.455,252.542 487.332,250.51C486.12,248.315 485.297,245.78 484.84,242.914C484.35,239.837 484.106,236.643 484.106,233.332ZM314.211,228.993C313.2,229.736 312.238,230.479 311.327,231.223C309.883,232.4 308.642,233.612 307.608,234.863C306.648,236.026 305.896,237.219 305.367,238.45C304.889,239.559 304.653,240.729 304.653,241.961C304.653,244.287 305.069,246.34 305.951,248.11C306.835,249.884 307.983,251.375 309.406,252.575C310.851,253.792 312.478,254.708 314.287,255.324C316.132,255.954 317.985,256.272 319.847,256.272C322.973,256.272 325.853,255.813 328.482,254.878C330.178,254.275 331.793,253.524 333.327,252.626L314.211,228.993ZM64.292,253.441C64.846,253.495 65.418,253.544 66.01,253.592C67.277,253.71 68.707,253.809 70.3,253.889C71.892,253.968 73.494,254.007 75.106,254.007C79.652,254.007 83.688,253.417 87.207,252.206C90.527,251.064 93.323,249.259 95.588,246.778C97.907,244.237 99.634,240.943 100.82,236.922C102.077,232.66 102.688,227.525 102.688,221.521C102.688,215.849 102.274,210.818 101.435,206.426C100.648,202.311 99.322,198.841 97.41,196.036C95.594,193.372 93.152,191.355 90.097,189.97C86.859,188.503 82.785,187.81 77.892,187.81C75.858,187.81 73.872,187.869 71.934,187.988C69.97,188.109 68.221,188.239 66.685,188.379L64.128,188.61L64.292,253.441ZM173.379,226.04C173.442,225.356 173.472,224.64 173.472,223.893C173.472,222.182 173.189,220.462 172.632,218.733C172.083,217.026 171.286,215.482 170.237,214.103C169.234,212.784 167.989,211.713 166.507,210.889C165.08,210.094 163.44,209.719 161.598,209.719C159.148,209.719 157.091,210.154 155.453,211.125C153.811,212.098 152.474,213.403 151.439,215.037C150.323,216.796 149.519,218.844 149.004,221.172C148.654,222.753 148.385,224.376 148.196,226.04L173.379,226.04ZM320.477,209.929C321.94,209.08 323.345,208.2 324.69,207.289C326.277,206.215 327.663,205.044 328.845,203.77C329.954,202.573 330.835,201.276 331.481,199.873C332.085,198.564 332.373,197.108 332.373,195.512C332.373,194.222 332.126,193.015 331.62,191.894C331.1,190.741 330.38,189.723 329.462,188.838C328.535,187.945 327.451,187.246 326.214,186.735C324.979,186.225 323.666,185.974 322.277,185.974C320.92,185.974 319.587,186.221 318.277,186.71C316.963,187.2 315.79,187.884 314.76,188.767C313.761,189.625 312.956,190.658 312.341,191.865C311.75,193.024 311.47,194.323 311.47,195.757C311.47,196.518 311.639,197.299 311.954,198.103C312.345,199.105 312.941,200.2 313.725,201.397C314.585,202.71 315.692,204.187 317.039,205.829C318.053,207.065 319.199,208.432 320.477,209.929ZM237.924,180.702C237.924,182.265 238.229,183.715 238.824,185.055C239.41,186.374 240.21,187.528 241.222,188.517C242.229,189.502 243.418,190.287 244.796,190.862C246.174,191.436 247.63,191.727 249.167,191.727C250.703,191.727 252.16,191.436 253.537,190.862C254.915,190.287 256.105,189.502 257.112,188.517C258.124,187.528 258.924,186.374 259.51,185.055C260.105,183.715 260.41,182.265 260.41,180.702C260.41,179.161 260.113,177.703 259.527,176.327C258.938,174.945 258.129,173.76 257.112,172.764C256.105,171.779 254.915,170.994 253.537,170.42C252.16,169.845 250.703,169.555 249.167,169.555C247.63,169.555 246.174,169.845 244.796,170.42C243.418,170.994 242.229,171.779 241.222,172.764C240.204,173.76 239.396,174.945 238.807,176.327C238.22,177.703 237.924,179.161 237.924,180.702Z" style="fill:white;fill-rule:nonzero;"/>
    </g>
</svg>
