<?xml version="1.0" encoding="UTF-8" standalone="no"?>
<!DOCTYPE svg PUBLIC "-//W3C//DTD SVG 1.1//EN" "http://www.w3.org/Graphics/SVG/1.1/DTD/svg11.dtd">
<svg width="100%" height="100%" viewBox="0 0 668 132" version="1.1" xmlns="http://www.w3.org/2000/svg" xmlns:xlink="http://www.w3.org/1999/xlink" xml:space="preserve" xmlns:serif="http://www.serif.com/" style="fill-rule:evenodd;clip-rule:evenodd;stroke-linecap:round;stroke-linejoin:round;stroke-miterlimit:1.5;">
    <g>
        <path d="M597.204,130.322C597.204,130.322 489.137,71.541 333.358,71.541C177.578,71.541 69.511,130.322 69.511,130.322" style="fill:none;stroke:rgb(232,94,94);stroke-width:2.69px;stroke-dasharray:5.37,8.06,0,0;"/>
        <g transform="matrix(7.90408,0,0,9.00639,-7414.77,-689.351)">
            <g transform="matrix(1.01069,-0.436797,0.396715,0.917942,-45.5857,417.802)">
                <g transform="matrix(6.43987,0,0,6.43987,939.681,89.5938)">
                    <path d="M0.689,-0.708L0.689,-0.689C0.668,-0.684 0.645,-0.675 0.621,-0.661C0.596,-0.647 0.571,-0.624 0.544,-0.593L0.356,-0.369L0.414,-0.452L0.652,-0.081C0.661,-0.066 0.671,-0.053 0.682,-0.044C0.693,-0.035 0.707,-0.027 0.724,-0.02L0.724,-0C0.701,-0.001 0.675,-0.002 0.646,-0.003C0.617,-0.003 0.591,-0.003 0.568,-0.003C0.554,-0.003 0.537,-0.003 0.517,-0.003C0.497,-0.002 0.472,-0.001 0.441,-0L0.441,-0.02C0.468,-0.021 0.485,-0.025 0.491,-0.032C0.496,-0.038 0.494,-0.049 0.483,-0.065L0.338,-0.3C0.329,-0.315 0.32,-0.327 0.313,-0.335C0.306,-0.342 0.298,-0.347 0.291,-0.35C0.284,-0.354 0.274,-0.355 0.262,-0.356L0.262,-0.377C0.291,-0.378 0.318,-0.386 0.341,-0.401C0.364,-0.416 0.389,-0.44 0.416,-0.471L0.475,-0.542C0.5,-0.572 0.515,-0.598 0.52,-0.62C0.524,-0.641 0.52,-0.658 0.506,-0.67C0.494,-0.682 0.474,-0.688 0.447,-0.689L0.447,-0.708C0.472,-0.707 0.495,-0.707 0.518,-0.706C0.54,-0.705 0.566,-0.705 0.595,-0.705C0.634,-0.705 0.665,-0.706 0.689,-0.708ZM0.343,-0.708L0.343,-0.688C0.322,-0.687 0.306,-0.685 0.295,-0.681C0.283,-0.676 0.276,-0.668 0.273,-0.657C0.27,-0.645 0.268,-0.627 0.268,-0.602L0.268,-0.106C0.268,-0.082 0.27,-0.064 0.274,-0.052C0.277,-0.04 0.284,-0.032 0.295,-0.028C0.306,-0.024 0.322,-0.021 0.343,-0.02L0.343,-0C0.325,-0.001 0.302,-0.002 0.275,-0.003C0.248,-0.003 0.22,-0.003 0.192,-0.003C0.16,-0.003 0.13,-0.003 0.102,-0.003C0.073,-0.002 0.051,-0.001 0.034,-0L0.034,-0.02C0.055,-0.021 0.071,-0.024 0.082,-0.028C0.093,-0.032 0.1,-0.04 0.103,-0.052C0.107,-0.064 0.109,-0.082 0.109,-0.106L0.109,-0.602C0.109,-0.627 0.107,-0.645 0.103,-0.657C0.1,-0.668 0.093,-0.676 0.082,-0.681C0.07,-0.685 0.055,-0.687 0.034,-0.688L0.034,-0.708C0.051,-0.707 0.073,-0.707 0.102,-0.706C0.13,-0.705 0.16,-0.705 0.192,-0.705C0.22,-0.705 0.248,-0.705 0.275,-0.706C0.302,-0.707 0.325,-0.707 0.343,-0.708Z" style="fill:rgb(64,64,64);fill-rule:nonzero;"/>
                </g>
            </g>
            <g transform="matrix(1.03666,-0.370956,0.336915,0.941535,-64.1417,355.432)">
                <g transform="matrix(6.43987,0,0,6.43987,944.346,87.6127)">
                    <path d="M0.156,0.007C0.111,0.007 0.079,-0.005 0.059,-0.028C0.039,-0.051 0.029,-0.08 0.029,-0.113C0.029,-0.142 0.035,-0.165 0.049,-0.183C0.062,-0.201 0.078,-0.216 0.099,-0.228C0.12,-0.239 0.141,-0.249 0.165,-0.257C0.188,-0.264 0.21,-0.272 0.231,-0.28C0.252,-0.287 0.269,-0.296 0.281,-0.306C0.295,-0.316 0.301,-0.329 0.301,-0.344L0.301,-0.422C0.301,-0.439 0.298,-0.455 0.293,-0.469C0.287,-0.482 0.278,-0.493 0.267,-0.5C0.255,-0.507 0.24,-0.511 0.221,-0.511C0.208,-0.511 0.194,-0.509 0.181,-0.505C0.168,-0.502 0.157,-0.496 0.148,-0.487C0.167,-0.48 0.181,-0.47 0.192,-0.457C0.202,-0.443 0.207,-0.427 0.207,-0.41C0.207,-0.387 0.199,-0.369 0.184,-0.356C0.168,-0.343 0.149,-0.336 0.128,-0.336C0.104,-0.336 0.086,-0.344 0.074,-0.359C0.061,-0.374 0.055,-0.392 0.055,-0.413C0.055,-0.432 0.06,-0.448 0.07,-0.461C0.079,-0.474 0.093,-0.486 0.11,-0.497C0.129,-0.508 0.151,-0.516 0.178,-0.522C0.204,-0.528 0.232,-0.531 0.263,-0.531C0.294,-0.531 0.321,-0.528 0.346,-0.522C0.371,-0.515 0.391,-0.504 0.408,-0.487C0.423,-0.472 0.433,-0.453 0.438,-0.431C0.443,-0.408 0.445,-0.38 0.445,-0.346L0.445,-0.074C0.445,-0.058 0.447,-0.047 0.45,-0.04C0.453,-0.033 0.459,-0.03 0.467,-0.03C0.474,-0.03 0.48,-0.032 0.486,-0.035C0.492,-0.038 0.498,-0.042 0.503,-0.047L0.513,-0.03C0.499,-0.018 0.483,-0.009 0.465,-0.003C0.446,0.004 0.426,0.007 0.403,0.007C0.363,0.007 0.337,-0.001 0.324,-0.018C0.311,-0.034 0.304,-0.053 0.303,-0.074C0.286,-0.047 0.266,-0.026 0.242,-0.013C0.217,0 0.189,0.007 0.156,0.007ZM0.233,-0.057C0.246,-0.057 0.258,-0.06 0.269,-0.066C0.28,-0.072 0.29,-0.083 0.301,-0.098L0.301,-0.303C0.293,-0.29 0.282,-0.279 0.268,-0.27C0.253,-0.261 0.238,-0.251 0.224,-0.241C0.209,-0.23 0.196,-0.217 0.186,-0.201C0.176,-0.185 0.171,-0.164 0.171,-0.137C0.171,-0.108 0.177,-0.088 0.189,-0.076C0.201,-0.063 0.216,-0.057 0.233,-0.057Z" style="fill:rgb(64,64,64);fill-rule:nonzero;"/>
                </g>
            </g>
            <g transform="matrix(1.05765,-0.306022,0.27794,0.960598,-78.6434,293.449)">
                <g transform="matrix(6.43987,0,0,6.43987,947.799,86.347)">
                    <path d="M0.387,-0.531C0.415,-0.531 0.438,-0.528 0.455,-0.521C0.472,-0.514 0.486,-0.504 0.497,-0.492C0.508,-0.479 0.515,-0.463 0.52,-0.443C0.525,-0.422 0.527,-0.395 0.527,-0.362L0.527,-0.093C0.527,-0.065 0.531,-0.046 0.54,-0.036C0.549,-0.026 0.564,-0.021 0.585,-0.021L0.585,-0C0.573,-0.001 0.555,-0.002 0.531,-0.003C0.506,-0.004 0.482,-0.004 0.459,-0.004C0.435,-0.004 0.411,-0.004 0.388,-0.003C0.365,-0.002 0.347,-0.001 0.335,-0L0.335,-0.021C0.353,-0.021 0.366,-0.026 0.373,-0.036C0.38,-0.046 0.383,-0.065 0.383,-0.093L0.383,-0.404C0.383,-0.421 0.382,-0.435 0.379,-0.448C0.376,-0.46 0.371,-0.469 0.364,-0.476C0.356,-0.484 0.344,-0.487 0.329,-0.487C0.312,-0.487 0.296,-0.482 0.281,-0.472C0.266,-0.462 0.255,-0.448 0.246,-0.431C0.236,-0.413 0.232,-0.393 0.232,-0.371L0.232,-0.093C0.232,-0.065 0.236,-0.046 0.243,-0.036C0.25,-0.026 0.263,-0.021 0.28,-0.021L0.28,-0C0.269,-0.001 0.253,-0.002 0.231,-0.003C0.208,-0.004 0.185,-0.004 0.162,-0.004C0.137,-0.004 0.111,-0.004 0.084,-0.003C0.057,-0.002 0.037,-0.001 0.024,-0L0.024,-0.021C0.047,-0.021 0.064,-0.026 0.074,-0.036C0.083,-0.046 0.088,-0.065 0.088,-0.093L0.088,-0.408C0.088,-0.438 0.084,-0.46 0.075,-0.474C0.066,-0.489 0.049,-0.496 0.024,-0.496L0.024,-0.517C0.045,-0.515 0.066,-0.514 0.086,-0.514C0.114,-0.514 0.14,-0.515 0.165,-0.518C0.189,-0.52 0.211,-0.523 0.232,-0.528L0.232,-0.438C0.248,-0.471 0.27,-0.495 0.297,-0.509C0.324,-0.524 0.354,-0.531 0.387,-0.531ZM0.688,-0.531C0.716,-0.531 0.739,-0.528 0.756,-0.521C0.773,-0.514 0.787,-0.504 0.798,-0.492C0.809,-0.479 0.816,-0.463 0.821,-0.443C0.826,-0.422 0.828,-0.395 0.828,-0.362L0.828,-0.093C0.828,-0.065 0.833,-0.046 0.843,-0.036C0.852,-0.026 0.869,-0.021 0.892,-0.021L0.892,-0C0.879,-0.001 0.86,-0.002 0.835,-0.003C0.81,-0.004 0.785,-0.004 0.76,-0.004C0.736,-0.004 0.712,-0.004 0.689,-0.003C0.666,-0.002 0.648,-0.001 0.636,-0L0.636,-0.021C0.654,-0.021 0.667,-0.026 0.674,-0.036C0.681,-0.046 0.684,-0.065 0.684,-0.093L0.684,-0.404C0.684,-0.421 0.683,-0.435 0.68,-0.448C0.677,-0.46 0.671,-0.469 0.663,-0.476C0.654,-0.484 0.641,-0.487 0.624,-0.487C0.598,-0.487 0.575,-0.475 0.556,-0.453C0.537,-0.43 0.527,-0.401 0.526,-0.368L0.521,-0.429C0.539,-0.469 0.563,-0.496 0.593,-0.51C0.622,-0.524 0.654,-0.531 0.688,-0.531Z" style="fill:rgb(64,64,64);fill-rule:nonzero;"/>
                </g>
            </g>
            <g transform="matrix(1.0718,-0.252061,0.228931,0.973443,-87.8648,242.708)">
                <g transform="matrix(6.43987,0,0,6.43987,953.979,84.6252)">
                    <path d="M0.154,-0.775C0.182,-0.775 0.204,-0.768 0.221,-0.754C0.237,-0.741 0.245,-0.722 0.245,-0.698C0.245,-0.674 0.237,-0.655 0.221,-0.642C0.204,-0.628 0.182,-0.621 0.154,-0.621C0.126,-0.621 0.104,-0.628 0.087,-0.642C0.071,-0.655 0.063,-0.674 0.063,-0.698C0.063,-0.722 0.071,-0.741 0.087,-0.754C0.104,-0.768 0.126,-0.775 0.154,-0.775ZM0.232,-0.528L0.232,-0.093C0.232,-0.065 0.237,-0.046 0.247,-0.036C0.256,-0.026 0.273,-0.021 0.296,-0.021L0.296,-0C0.284,-0.001 0.265,-0.002 0.24,-0.003C0.215,-0.004 0.189,-0.004 0.163,-0.004C0.137,-0.004 0.111,-0.004 0.084,-0.003C0.057,-0.002 0.037,-0.001 0.024,-0L0.024,-0.021C0.047,-0.021 0.064,-0.026 0.074,-0.036C0.083,-0.046 0.088,-0.065 0.088,-0.093L0.088,-0.408C0.088,-0.438 0.084,-0.46 0.075,-0.474C0.066,-0.489 0.049,-0.496 0.024,-0.496L0.024,-0.517C0.045,-0.515 0.066,-0.514 0.086,-0.514C0.114,-0.514 0.14,-0.515 0.165,-0.518C0.189,-0.52 0.211,-0.523 0.232,-0.528Z" style="fill:rgb(64,64,64);fill-rule:nonzero;"/>
                </g>
            </g>
            <g transform="matrix(1.08251,-0.201116,0.182661,0.983176,-94.3279,194.032)">
                <g transform="matrix(6.43987,0,0,6.43987,957.771,83.7621)">
                    <path d="M0.156,0.007C0.111,0.007 0.079,-0.005 0.059,-0.028C0.039,-0.051 0.029,-0.08 0.029,-0.113C0.029,-0.142 0.035,-0.165 0.049,-0.183C0.062,-0.201 0.078,-0.216 0.099,-0.228C0.12,-0.239 0.141,-0.249 0.165,-0.257C0.188,-0.264 0.21,-0.272 0.231,-0.28C0.252,-0.287 0.269,-0.296 0.281,-0.306C0.295,-0.316 0.301,-0.329 0.301,-0.344L0.301,-0.422C0.301,-0.439 0.298,-0.455 0.293,-0.469C0.287,-0.482 0.278,-0.493 0.267,-0.5C0.255,-0.507 0.24,-0.511 0.221,-0.511C0.208,-0.511 0.194,-0.509 0.181,-0.505C0.168,-0.502 0.157,-0.496 0.148,-0.487C0.167,-0.48 0.181,-0.47 0.192,-0.457C0.202,-0.443 0.207,-0.427 0.207,-0.41C0.207,-0.387 0.199,-0.369 0.184,-0.356C0.168,-0.343 0.149,-0.336 0.128,-0.336C0.104,-0.336 0.086,-0.344 0.074,-0.359C0.061,-0.374 0.055,-0.392 0.055,-0.413C0.055,-0.432 0.06,-0.448 0.07,-0.461C0.079,-0.474 0.093,-0.486 0.11,-0.497C0.129,-0.508 0.151,-0.516 0.178,-0.522C0.204,-0.528 0.232,-0.531 0.263,-0.531C0.294,-0.531 0.321,-0.528 0.346,-0.522C0.371,-0.515 0.391,-0.504 0.408,-0.487C0.423,-0.472 0.433,-0.453 0.438,-0.431C0.443,-0.408 0.445,-0.38 0.445,-0.346L0.445,-0.074C0.445,-0.058 0.447,-0.047 0.45,-0.04C0.453,-0.033 0.459,-0.03 0.467,-0.03C0.474,-0.03 0.48,-0.032 0.486,-0.035C0.492,-0.038 0.498,-0.042 0.503,-0.047L0.513,-0.03C0.499,-0.018 0.483,-0.009 0.465,-0.003C0.446,0.004 0.426,0.007 0.403,0.007C0.363,0.007 0.337,-0.001 0.324,-0.018C0.311,-0.034 0.304,-0.053 0.303,-0.074C0.286,-0.047 0.266,-0.026 0.242,-0.013C0.217,0 0.189,0.007 0.156,0.007ZM0.233,-0.057C0.246,-0.057 0.258,-0.06 0.269,-0.066C0.28,-0.072 0.29,-0.083 0.301,-0.098L0.301,-0.303C0.293,-0.29 0.282,-0.279 0.268,-0.27C0.253,-0.261 0.238,-0.251 0.224,-0.241C0.209,-0.23 0.196,-0.217 0.186,-0.201C0.176,-0.185 0.171,-0.164 0.171,-0.137C0.171,-0.108 0.177,-0.088 0.189,-0.076C0.201,-0.063 0.216,-0.057 0.233,-0.057Z" style="fill:rgb(64,64,64);fill-rule:nonzero;"/>
                </g>
            </g>
            <g transform="matrix(1.08929,-0.160392,0.145674,0.989333,-97.9466,155.084)">
                <g transform="matrix(6.43987,0,0,6.43987,961.377,83.0915)">
                    <path d="M0.516,-0.783L0.516,-0.11C0.516,-0.08 0.521,-0.058 0.53,-0.043C0.539,-0.029 0.556,-0.022 0.58,-0.022L0.58,-0.001C0.559,-0.003 0.539,-0.004 0.518,-0.004C0.49,-0.004 0.464,-0.003 0.44,-0.001C0.415,0.001 0.393,0.005 0.372,0.01L0.372,-0.663C0.372,-0.693 0.368,-0.715 0.359,-0.73C0.349,-0.744 0.333,-0.751 0.308,-0.751L0.308,-0.772C0.329,-0.77 0.35,-0.769 0.37,-0.769C0.397,-0.769 0.423,-0.77 0.448,-0.773C0.473,-0.775 0.495,-0.778 0.516,-0.783ZM0.261,-0.531C0.29,-0.531 0.316,-0.526 0.339,-0.517C0.361,-0.507 0.378,-0.491 0.391,-0.468L0.379,-0.457C0.37,-0.473 0.359,-0.485 0.344,-0.492C0.33,-0.499 0.315,-0.502 0.299,-0.502C0.265,-0.502 0.238,-0.482 0.218,-0.443C0.198,-0.403 0.188,-0.342 0.189,-0.259C0.189,-0.202 0.193,-0.157 0.201,-0.124C0.208,-0.09 0.219,-0.066 0.234,-0.051C0.248,-0.036 0.264,-0.029 0.283,-0.029C0.306,-0.029 0.326,-0.038 0.344,-0.056C0.362,-0.074 0.372,-0.098 0.373,-0.129L0.378,-0.094C0.368,-0.059 0.352,-0.032 0.33,-0.014C0.307,0.005 0.278,0.014 0.242,0.014C0.203,0.014 0.168,0.004 0.137,-0.015C0.106,-0.034 0.081,-0.064 0.064,-0.105C0.047,-0.145 0.038,-0.197 0.038,-0.261C0.038,-0.322 0.048,-0.372 0.067,-0.411C0.086,-0.451 0.113,-0.481 0.147,-0.501C0.18,-0.521 0.218,-0.531 0.261,-0.531Z" style="fill:rgb(64,64,64);fill-rule:nonzero;"/>
                </g>
            </g>
            <g transform="matrix(1.09441,-0.120641,0.109571,0.993979,-100.195,116.985)">
                <g transform="matrix(6.43987,0,0,6.43987,965.578,82.4829)">
                    <path d="M0.156,0.007C0.111,0.007 0.079,-0.005 0.059,-0.028C0.039,-0.051 0.029,-0.08 0.029,-0.113C0.029,-0.142 0.035,-0.165 0.049,-0.183C0.062,-0.201 0.078,-0.216 0.099,-0.228C0.12,-0.239 0.141,-0.249 0.165,-0.257C0.188,-0.264 0.21,-0.272 0.231,-0.28C0.252,-0.287 0.269,-0.296 0.281,-0.306C0.295,-0.316 0.301,-0.329 0.301,-0.344L0.301,-0.422C0.301,-0.439 0.298,-0.455 0.293,-0.469C0.287,-0.482 0.278,-0.493 0.267,-0.5C0.255,-0.507 0.24,-0.511 0.221,-0.511C0.208,-0.511 0.194,-0.509 0.181,-0.505C0.168,-0.502 0.157,-0.496 0.148,-0.487C0.167,-0.48 0.181,-0.47 0.192,-0.457C0.202,-0.443 0.207,-0.427 0.207,-0.41C0.207,-0.387 0.199,-0.369 0.184,-0.356C0.168,-0.343 0.149,-0.336 0.128,-0.336C0.104,-0.336 0.086,-0.344 0.074,-0.359C0.061,-0.374 0.055,-0.392 0.055,-0.413C0.055,-0.432 0.06,-0.448 0.07,-0.461C0.079,-0.474 0.093,-0.486 0.11,-0.497C0.129,-0.508 0.151,-0.516 0.178,-0.522C0.204,-0.528 0.232,-0.531 0.263,-0.531C0.294,-0.531 0.321,-0.528 0.346,-0.522C0.371,-0.515 0.391,-0.504 0.408,-0.487C0.423,-0.472 0.433,-0.453 0.438,-0.431C0.443,-0.408 0.445,-0.38 0.445,-0.346L0.445,-0.074C0.445,-0.058 0.447,-0.047 0.45,-0.04C0.453,-0.033 0.459,-0.03 0.467,-0.03C0.474,-0.03 0.48,-0.032 0.486,-0.035C0.492,-0.038 0.498,-0.042 0.503,-0.047L0.513,-0.03C0.499,-0.018 0.483,-0.009 0.465,-0.003C0.446,0.004 0.426,0.007 0.403,0.007C0.363,0.007 0.337,-0.001 0.324,-0.018C0.311,-0.034 0.304,-0.053 0.303,-0.074C0.286,-0.047 0.266,-0.026 0.242,-0.013C0.217,0 0.189,0.007 0.156,0.007ZM0.233,-0.057C0.246,-0.057 0.258,-0.06 0.269,-0.066C0.28,-0.072 0.29,-0.083 0.301,-0.098L0.301,-0.303C0.293,-0.29 0.282,-0.279 0.268,-0.27C0.253,-0.261 0.238,-0.251 0.224,-0.241C0.209,-0.23 0.196,-0.217 0.186,-0.201C0.176,-0.185 0.171,-0.164 0.171,-0.137C0.171,-0.108 0.177,-0.088 0.189,-0.076C0.201,-0.063 0.216,-0.057 0.233,-0.057Z" style="fill:rgb(64,64,64);fill-rule:nonzero;"/>
                </g>
            </g>
            <g transform="matrix(1.09893,-0.0679917,0.0617524,0.998091,-101.11,66.1653)">
                <g transform="matrix(6.43987,0,0,6.43987,970.838,81.9416)">
                    <path d="M0.516,-0.783L0.516,-0.11C0.516,-0.08 0.521,-0.058 0.53,-0.043C0.539,-0.029 0.556,-0.022 0.58,-0.022L0.58,-0.001C0.559,-0.003 0.539,-0.004 0.518,-0.004C0.49,-0.004 0.464,-0.003 0.44,-0.001C0.415,0.001 0.393,0.005 0.372,0.01L0.372,-0.663C0.372,-0.693 0.368,-0.715 0.359,-0.73C0.349,-0.744 0.333,-0.751 0.308,-0.751L0.308,-0.772C0.329,-0.77 0.35,-0.769 0.37,-0.769C0.397,-0.769 0.423,-0.77 0.448,-0.773C0.473,-0.775 0.495,-0.778 0.516,-0.783ZM0.261,-0.531C0.29,-0.531 0.316,-0.526 0.339,-0.517C0.361,-0.507 0.378,-0.491 0.391,-0.468L0.379,-0.457C0.37,-0.473 0.359,-0.485 0.344,-0.492C0.33,-0.499 0.315,-0.502 0.299,-0.502C0.265,-0.502 0.238,-0.482 0.218,-0.443C0.198,-0.403 0.188,-0.342 0.189,-0.259C0.189,-0.202 0.193,-0.157 0.201,-0.124C0.208,-0.09 0.219,-0.066 0.234,-0.051C0.248,-0.036 0.264,-0.029 0.283,-0.029C0.306,-0.029 0.326,-0.038 0.344,-0.056C0.362,-0.074 0.372,-0.098 0.373,-0.129L0.378,-0.094C0.368,-0.059 0.352,-0.032 0.33,-0.014C0.307,0.005 0.278,0.014 0.242,0.014C0.203,0.014 0.168,0.004 0.137,-0.015C0.106,-0.034 0.081,-0.064 0.064,-0.105C0.047,-0.145 0.038,-0.197 0.038,-0.261C0.038,-0.322 0.048,-0.372 0.067,-0.411C0.086,-0.451 0.113,-0.481 0.147,-0.501C0.18,-0.521 0.218,-0.531 0.261,-0.531Z" style="fill:rgb(64,64,64);fill-rule:nonzero;"/>
                </g>
            </g>
            <g transform="matrix(1.10039,-0.0376785,0.0342209,0.999414,-100.685,36.7872)">
                <g transform="matrix(6.43987,0,0,6.43987,975.076,81.6965)">
                    <path d="M0.154,-0.775C0.182,-0.775 0.204,-0.768 0.221,-0.754C0.237,-0.741 0.245,-0.722 0.245,-0.698C0.245,-0.674 0.237,-0.655 0.221,-0.642C0.204,-0.628 0.182,-0.621 0.154,-0.621C0.126,-0.621 0.104,-0.628 0.087,-0.642C0.071,-0.655 0.063,-0.674 0.063,-0.698C0.063,-0.722 0.071,-0.741 0.087,-0.754C0.104,-0.768 0.126,-0.775 0.154,-0.775ZM0.232,-0.528L0.232,-0.093C0.232,-0.065 0.237,-0.046 0.247,-0.036C0.256,-0.026 0.273,-0.021 0.296,-0.021L0.296,-0C0.284,-0.001 0.265,-0.002 0.24,-0.003C0.215,-0.004 0.189,-0.004 0.163,-0.004C0.137,-0.004 0.111,-0.004 0.084,-0.003C0.057,-0.002 0.037,-0.001 0.024,-0L0.024,-0.021C0.047,-0.021 0.064,-0.026 0.074,-0.036C0.083,-0.046 0.088,-0.065 0.088,-0.093L0.088,-0.408C0.088,-0.438 0.084,-0.46 0.075,-0.474C0.066,-0.489 0.049,-0.496 0.024,-0.496L0.024,-0.517C0.045,-0.515 0.066,-0.514 0.086,-0.514C0.114,-0.514 0.14,-0.515 0.165,-0.518C0.189,-0.52 0.211,-0.523 0.232,-0.528Z" style="fill:rgb(64,64,64);fill-rule:nonzero;"/>
                </g>
            </g>
            <g transform="matrix(1.10102,0.00607053,-0.00551347,0.999985,-98.4436,-5.94153)">
                <g transform="matrix(6.43987,0,0,6.43987,978.955,81.5811)">
                    <path d="M0.516,-0.783L0.516,-0.11C0.516,-0.08 0.521,-0.058 0.53,-0.043C0.539,-0.029 0.556,-0.022 0.58,-0.022L0.58,-0.001C0.559,-0.003 0.539,-0.004 0.518,-0.004C0.49,-0.004 0.464,-0.003 0.44,-0.001C0.415,0.001 0.393,0.005 0.372,0.01L0.372,-0.663C0.372,-0.693 0.368,-0.715 0.359,-0.73C0.349,-0.744 0.333,-0.751 0.308,-0.751L0.308,-0.772C0.329,-0.77 0.35,-0.769 0.37,-0.769C0.397,-0.769 0.423,-0.77 0.448,-0.773C0.473,-0.775 0.495,-0.778 0.516,-0.783ZM0.261,-0.531C0.29,-0.531 0.316,-0.526 0.339,-0.517C0.361,-0.507 0.378,-0.491 0.391,-0.468L0.379,-0.457C0.37,-0.473 0.359,-0.485 0.344,-0.492C0.33,-0.499 0.315,-0.502 0.299,-0.502C0.265,-0.502 0.238,-0.482 0.218,-0.443C0.198,-0.403 0.188,-0.342 0.189,-0.259C0.189,-0.202 0.193,-0.157 0.201,-0.124C0.208,-0.09 0.219,-0.066 0.234,-0.051C0.248,-0.036 0.264,-0.029 0.283,-0.029C0.306,-0.029 0.326,-0.038 0.344,-0.056C0.362,-0.074 0.372,-0.098 0.373,-0.129L0.378,-0.094C0.368,-0.059 0.352,-0.032 0.33,-0.014C0.307,0.005 0.278,0.014 0.242,0.014C0.203,0.014 0.168,0.004 0.137,-0.015C0.106,-0.034 0.081,-0.064 0.064,-0.105C0.047,-0.145 0.038,-0.197 0.038,-0.261C0.038,-0.322 0.048,-0.372 0.067,-0.411C0.086,-0.451 0.113,-0.481 0.147,-0.501C0.18,-0.521 0.218,-0.531 0.261,-0.531Z" style="fill:rgb(64,64,64);fill-rule:nonzero;"/>
                </g>
            </g>
            <g transform="matrix(1.10026,0.0412712,-0.037484,0.999297,-95.518,-40.5202)">
                <g transform="matrix(6.43987,0,0,6.43987,983.193,81.6141)">
                    <path d="M0.282,-0.531C0.341,-0.531 0.387,-0.514 0.42,-0.479C0.453,-0.444 0.47,-0.388 0.47,-0.309L0.141,-0.309L0.139,-0.328L0.344,-0.328C0.345,-0.361 0.343,-0.391 0.338,-0.419C0.333,-0.446 0.326,-0.468 0.316,-0.485C0.306,-0.502 0.293,-0.51 0.276,-0.51C0.253,-0.51 0.233,-0.495 0.217,-0.466C0.2,-0.437 0.19,-0.388 0.187,-0.32L0.19,-0.314C0.189,-0.306 0.189,-0.298 0.189,-0.289C0.188,-0.28 0.188,-0.271 0.188,-0.262C0.188,-0.216 0.195,-0.179 0.207,-0.15C0.221,-0.121 0.237,-0.101 0.257,-0.087C0.277,-0.075 0.297,-0.068 0.318,-0.068C0.338,-0.068 0.36,-0.073 0.384,-0.083C0.407,-0.093 0.429,-0.115 0.45,-0.148L0.468,-0.142C0.46,-0.117 0.447,-0.092 0.43,-0.068C0.413,-0.044 0.391,-0.024 0.364,-0.009C0.337,0.006 0.305,0.014 0.268,0.014C0.223,0.014 0.183,0.004 0.148,-0.015C0.113,-0.034 0.086,-0.064 0.067,-0.103C0.047,-0.142 0.037,-0.192 0.037,-0.253C0.037,-0.315 0.048,-0.367 0.069,-0.408C0.09,-0.449 0.118,-0.48 0.156,-0.5C0.193,-0.521 0.235,-0.531 0.282,-0.531Z" style="fill:rgb(64,64,64);fill-rule:nonzero;"/>
                </g>
            </g>
            <g transform="matrix(1.09832,0.0772962,-0.0702031,0.997533,-91.2798,-76.0718)">
                <g transform="matrix(6.43987,0,0,6.43987,986.769,81.7481)">
                    <path d="M0.227,-0.783L0.227,-0.093C0.227,-0.065 0.232,-0.046 0.241,-0.036C0.25,-0.026 0.265,-0.021 0.287,-0.021L0.287,-0C0.274,-0.001 0.256,-0.002 0.232,-0.003C0.207,-0.004 0.182,-0.004 0.157,-0.004C0.131,-0.004 0.105,-0.004 0.079,-0.003C0.052,-0.002 0.032,-0.001 0.019,-0L0.019,-0.021C0.042,-0.021 0.059,-0.026 0.069,-0.036C0.078,-0.046 0.083,-0.065 0.083,-0.093L0.083,-0.663C0.083,-0.693 0.079,-0.715 0.07,-0.73C0.061,-0.744 0.044,-0.751 0.019,-0.751L0.019,-0.772C0.04,-0.77 0.061,-0.769 0.081,-0.769C0.108,-0.769 0.134,-0.77 0.159,-0.773C0.184,-0.775 0.206,-0.778 0.227,-0.783ZM0.553,-0.517L0.553,-0.497C0.532,-0.493 0.512,-0.484 0.491,-0.471C0.47,-0.458 0.449,-0.441 0.428,-0.42L0.351,-0.34L0.361,-0.359L0.532,-0.073C0.539,-0.061 0.547,-0.05 0.555,-0.041C0.563,-0.032 0.573,-0.025 0.584,-0.021L0.584,-0C0.574,-0.001 0.559,-0.002 0.539,-0.003C0.519,-0.004 0.499,-0.004 0.479,-0.004C0.454,-0.004 0.43,-0.004 0.405,-0.003C0.38,-0.002 0.362,-0.001 0.35,-0L0.35,-0.021C0.363,-0.021 0.372,-0.024 0.377,-0.031C0.382,-0.037 0.381,-0.045 0.375,-0.055L0.276,-0.234C0.268,-0.247 0.26,-0.255 0.253,-0.259C0.245,-0.262 0.235,-0.264 0.222,-0.265L0.222,-0.284C0.236,-0.285 0.248,-0.288 0.259,-0.291C0.269,-0.294 0.278,-0.301 0.287,-0.31L0.363,-0.384C0.386,-0.405 0.397,-0.424 0.397,-0.441C0.397,-0.458 0.39,-0.471 0.376,-0.481C0.361,-0.491 0.342,-0.496 0.319,-0.497L0.319,-0.517C0.338,-0.516 0.358,-0.516 0.38,-0.515C0.402,-0.514 0.421,-0.514 0.436,-0.514C0.449,-0.514 0.464,-0.514 0.478,-0.515C0.494,-0.515 0.508,-0.515 0.521,-0.516C0.534,-0.516 0.545,-0.516 0.553,-0.517Z" style="fill:rgb(64,64,64);fill-rule:nonzero;"/>
                </g>
            </g>
            <g transform="matrix(1.09504,0.114734,-0.104206,0.994556,-85.6259,-113.242)">
                <g transform="matrix(6.43987,0,0,6.43987,990.884,82.0448)">
                    <path d="M0.156,0.007C0.111,0.007 0.079,-0.005 0.059,-0.028C0.039,-0.051 0.029,-0.08 0.029,-0.113C0.029,-0.142 0.035,-0.165 0.049,-0.183C0.062,-0.201 0.078,-0.216 0.099,-0.228C0.12,-0.239 0.141,-0.249 0.165,-0.257C0.188,-0.264 0.21,-0.272 0.231,-0.28C0.252,-0.287 0.269,-0.296 0.281,-0.306C0.295,-0.316 0.301,-0.329 0.301,-0.344L0.301,-0.422C0.301,-0.439 0.298,-0.455 0.293,-0.469C0.287,-0.482 0.278,-0.493 0.267,-0.5C0.255,-0.507 0.24,-0.511 0.221,-0.511C0.208,-0.511 0.194,-0.509 0.181,-0.505C0.168,-0.502 0.157,-0.496 0.148,-0.487C0.167,-0.48 0.181,-0.47 0.192,-0.457C0.202,-0.443 0.207,-0.427 0.207,-0.41C0.207,-0.387 0.199,-0.369 0.184,-0.356C0.168,-0.343 0.149,-0.336 0.128,-0.336C0.104,-0.336 0.086,-0.344 0.074,-0.359C0.061,-0.374 0.055,-0.392 0.055,-0.413C0.055,-0.432 0.06,-0.448 0.07,-0.461C0.079,-0.474 0.093,-0.486 0.11,-0.497C0.129,-0.508 0.151,-0.516 0.178,-0.522C0.204,-0.528 0.232,-0.531 0.263,-0.531C0.294,-0.531 0.321,-0.528 0.346,-0.522C0.371,-0.515 0.391,-0.504 0.408,-0.487C0.423,-0.472 0.433,-0.453 0.438,-0.431C0.443,-0.408 0.445,-0.38 0.445,-0.346L0.445,-0.074C0.445,-0.058 0.447,-0.047 0.45,-0.04C0.453,-0.033 0.459,-0.03 0.467,-0.03C0.474,-0.03 0.48,-0.032 0.486,-0.035C0.492,-0.038 0.498,-0.042 0.503,-0.047L0.513,-0.03C0.499,-0.018 0.483,-0.009 0.465,-0.003C0.446,0.004 0.426,0.007 0.403,0.007C0.363,0.007 0.337,-0.001 0.324,-0.018C0.311,-0.034 0.304,-0.053 0.303,-0.074C0.286,-0.047 0.266,-0.026 0.242,-0.013C0.217,0 0.189,0.007 0.156,0.007ZM0.233,-0.057C0.246,-0.057 0.258,-0.06 0.269,-0.066C0.28,-0.072 0.29,-0.083 0.301,-0.098L0.301,-0.303C0.293,-0.29 0.282,-0.279 0.268,-0.27C0.253,-0.261 0.238,-0.251 0.224,-0.241C0.209,-0.23 0.196,-0.217 0.186,-0.201C0.176,-0.185 0.171,-0.164 0.171,-0.137C0.171,-0.108 0.177,-0.088 0.189,-0.076C0.201,-0.063 0.216,-0.057 0.233,-0.057Z" style="fill:rgb(64,64,64);fill-rule:nonzero;"/>
                </g>
            </g>
            <g transform="matrix(1.09147,0.144834,-0.131543,0.99131,-80.124,-143.325)">
                <g transform="matrix(6.43987,0,0,6.43987,994.528,82.437)">
                    <path d="M0.227,-0.681L0.227,-0.517L0.345,-0.517L0.345,-0.497L0.227,-0.497L0.227,-0.093C0.227,-0.073 0.231,-0.059 0.238,-0.051C0.245,-0.042 0.256,-0.038 0.271,-0.038C0.283,-0.038 0.295,-0.043 0.307,-0.051C0.319,-0.061 0.33,-0.076 0.339,-0.098L0.356,-0.089C0.345,-0.059 0.329,-0.034 0.308,-0.015C0.286,0.004 0.256,0.014 0.219,0.014C0.197,0.014 0.178,0.011 0.161,0.005C0.144,-0 0.13,-0.009 0.119,-0.02C0.104,-0.035 0.095,-0.053 0.09,-0.075C0.085,-0.096 0.083,-0.124 0.083,-0.159L0.083,-0.497L-0.001,-0.497L-0.001,-0.517L0.083,-0.517L0.083,-0.649C0.111,-0.649 0.137,-0.652 0.161,-0.657C0.184,-0.662 0.206,-0.67 0.227,-0.681Z" style="fill:rgb(64,64,64);fill-rule:nonzero;"/>
                </g>
            </g>
            <g transform="matrix(1.08472,0.188839,-0.17151,0.985182,-70.2781,-187.048)">
                <g transform="matrix(6.43987,0,0,6.43987,997.005,82.7323)">
                    <path d="M0.387,-0.531C0.415,-0.531 0.438,-0.528 0.455,-0.521C0.472,-0.514 0.486,-0.504 0.497,-0.492C0.508,-0.479 0.515,-0.463 0.52,-0.443C0.525,-0.422 0.527,-0.395 0.527,-0.362L0.527,-0.093C0.527,-0.065 0.531,-0.046 0.54,-0.036C0.549,-0.026 0.564,-0.021 0.585,-0.021L0.585,-0C0.573,-0.001 0.555,-0.002 0.531,-0.003C0.506,-0.004 0.482,-0.004 0.459,-0.004C0.435,-0.004 0.411,-0.004 0.388,-0.003C0.365,-0.002 0.347,-0.001 0.335,-0L0.335,-0.021C0.353,-0.021 0.366,-0.026 0.373,-0.036C0.38,-0.046 0.383,-0.065 0.383,-0.093L0.383,-0.404C0.383,-0.421 0.382,-0.435 0.379,-0.448C0.376,-0.46 0.371,-0.469 0.364,-0.476C0.356,-0.484 0.344,-0.487 0.329,-0.487C0.312,-0.487 0.296,-0.482 0.281,-0.472C0.266,-0.462 0.255,-0.448 0.246,-0.431C0.236,-0.413 0.232,-0.393 0.232,-0.371L0.232,-0.093C0.232,-0.065 0.236,-0.046 0.243,-0.036C0.25,-0.026 0.263,-0.021 0.28,-0.021L0.28,-0C0.269,-0.001 0.253,-0.002 0.231,-0.003C0.208,-0.004 0.185,-0.004 0.162,-0.004C0.137,-0.004 0.111,-0.004 0.084,-0.003C0.057,-0.002 0.037,-0.001 0.024,-0L0.024,-0.021C0.047,-0.021 0.064,-0.026 0.074,-0.036C0.083,-0.046 0.088,-0.065 0.088,-0.093L0.088,-0.408C0.088,-0.438 0.084,-0.46 0.075,-0.474C0.066,-0.489 0.049,-0.496 0.024,-0.496L0.024,-0.517C0.045,-0.515 0.066,-0.514 0.086,-0.514C0.114,-0.514 0.14,-0.515 0.165,-0.518C0.189,-0.52 0.211,-0.523 0.232,-0.528L0.232,-0.438C0.248,-0.471 0.27,-0.495 0.297,-0.509C0.324,-0.524 0.354,-0.531 0.387,-0.531ZM0.688,-0.531C0.716,-0.531 0.739,-0.528 0.756,-0.521C0.773,-0.514 0.787,-0.504 0.798,-0.492C0.809,-0.479 0.816,-0.463 0.821,-0.443C0.826,-0.422 0.828,-0.395 0.828,-0.362L0.828,-0.093C0.828,-0.065 0.833,-0.046 0.843,-0.036C0.852,-0.026 0.869,-0.021 0.892,-0.021L0.892,-0C0.879,-0.001 0.86,-0.002 0.835,-0.003C0.81,-0.004 0.785,-0.004 0.76,-0.004C0.736,-0.004 0.712,-0.004 0.689,-0.003C0.666,-0.002 0.648,-0.001 0.636,-0L0.636,-0.021C0.654,-0.021 0.667,-0.026 0.674,-0.036C0.681,-0.046 0.684,-0.065 0.684,-0.093L0.684,-0.404C0.684,-0.421 0.683,-0.435 0.68,-0.448C0.677,-0.46 0.671,-0.469 0.663,-0.476C0.654,-0.484 0.641,-0.487 0.624,-0.487C0.598,-0.487 0.575,-0.475 0.556,-0.453C0.537,-0.43 0.527,-0.401 0.526,-0.368L0.521,-0.429C0.539,-0.469 0.563,-0.496 0.593,-0.51C0.622,-0.524 0.654,-0.531 0.688,-0.531Z" style="fill:rgb(64,64,64);fill-rule:nonzero;"/>
                </g>
            </g>
            <g transform="matrix(1.07275,0.247955,-0.225201,0.974312,-54.1067,-246.625)">
                <g transform="matrix(6.43987,0,0,6.43987,1003.33,83.8736)">
                    <path d="M0.522,-0.528L0.522,-0.109C0.522,-0.079 0.527,-0.057 0.536,-0.043C0.545,-0.028 0.562,-0.021 0.586,-0.021L0.586,-0C0.565,-0.002 0.545,-0.003 0.524,-0.003C0.496,-0.003 0.47,-0.002 0.446,-0C0.422,0.002 0.399,0.006 0.378,0.011L0.378,-0.079C0.362,-0.046 0.34,-0.022 0.312,-0.008C0.283,0.007 0.252,0.014 0.217,0.014C0.189,0.014 0.166,0.01 0.149,0.003C0.132,-0.004 0.118,-0.014 0.108,-0.025C0.097,-0.038 0.089,-0.054 0.084,-0.075C0.079,-0.096 0.077,-0.122 0.077,-0.155L0.077,-0.408C0.077,-0.438 0.073,-0.46 0.064,-0.474C0.055,-0.489 0.038,-0.496 0.013,-0.496L0.013,-0.517C0.034,-0.515 0.055,-0.514 0.075,-0.514C0.103,-0.514 0.129,-0.515 0.154,-0.518C0.178,-0.52 0.2,-0.523 0.221,-0.528L0.221,-0.114C0.221,-0.097 0.223,-0.083 0.226,-0.07C0.229,-0.057 0.234,-0.048 0.243,-0.041C0.252,-0.034 0.264,-0.03 0.281,-0.03C0.308,-0.03 0.331,-0.041 0.349,-0.064C0.369,-0.086 0.378,-0.113 0.378,-0.146L0.378,-0.408C0.378,-0.438 0.374,-0.46 0.365,-0.474C0.356,-0.489 0.339,-0.496 0.314,-0.496L0.314,-0.517C0.335,-0.515 0.356,-0.514 0.376,-0.514C0.404,-0.514 0.43,-0.515 0.455,-0.518C0.479,-0.52 0.501,-0.523 0.522,-0.528Z" style="fill:rgb(64,64,64);fill-rule:nonzero;"/>
                </g>
            </g>
            <g transform="matrix(1.05733,0.307142,-0.278957,0.960304,-34.0592,-306.529)">
                <g transform="matrix(6.43987,0,0,6.43987,1009.03,85.2718)">
                    <path d="M0.228,-0.783L0.228,-0.093C0.228,-0.065 0.233,-0.046 0.243,-0.036C0.252,-0.026 0.269,-0.021 0.292,-0.021L0.292,-0C0.279,-0.001 0.26,-0.002 0.235,-0.003C0.21,-0.004 0.184,-0.004 0.158,-0.004C0.132,-0.004 0.106,-0.004 0.08,-0.003C0.053,-0.002 0.033,-0.001 0.02,-0L0.02,-0.021C0.043,-0.021 0.06,-0.026 0.07,-0.036C0.079,-0.046 0.084,-0.065 0.084,-0.093L0.084,-0.663C0.084,-0.693 0.08,-0.715 0.07,-0.73C0.062,-0.744 0.045,-0.751 0.02,-0.751L0.02,-0.772C0.041,-0.77 0.062,-0.769 0.082,-0.769C0.109,-0.769 0.135,-0.77 0.16,-0.773C0.185,-0.775 0.207,-0.778 0.228,-0.783Z" style="fill:rgb(64,64,64);fill-rule:nonzero;"/>
                </g>
            </g>
            <g transform="matrix(1.04421,0.349151,-0.317112,0.948388,-17.4699,-348.623)">
                <g transform="matrix(6.43987,0,0,6.43987,1011.18,85.882)">
                    <path d="M0.227,-0.782L0.227,-0.438C0.244,-0.473 0.266,-0.497 0.295,-0.51C0.323,-0.524 0.355,-0.531 0.39,-0.531C0.419,-0.531 0.442,-0.528 0.459,-0.521C0.476,-0.514 0.49,-0.504 0.5,-0.492C0.511,-0.479 0.52,-0.463 0.525,-0.443C0.53,-0.423 0.532,-0.396 0.532,-0.362L0.532,-0.093C0.532,-0.065 0.537,-0.046 0.547,-0.036C0.556,-0.026 0.573,-0.021 0.596,-0.021L0.596,-0C0.583,-0.001 0.564,-0.002 0.539,-0.003C0.513,-0.004 0.488,-0.004 0.464,-0.004C0.438,-0.004 0.413,-0.004 0.389,-0.003C0.364,-0.002 0.346,-0.001 0.334,-0L0.334,-0.021C0.354,-0.021 0.368,-0.026 0.376,-0.036C0.384,-0.046 0.388,-0.065 0.388,-0.093L0.388,-0.404C0.388,-0.421 0.386,-0.435 0.383,-0.448C0.38,-0.46 0.374,-0.469 0.365,-0.476C0.356,-0.484 0.343,-0.487 0.326,-0.487C0.299,-0.487 0.275,-0.476 0.256,-0.455C0.237,-0.434 0.227,-0.406 0.227,-0.372L0.227,-0.093C0.227,-0.065 0.231,-0.046 0.239,-0.036C0.247,-0.026 0.261,-0.021 0.281,-0.021L0.281,-0C0.269,-0.001 0.251,-0.002 0.228,-0.003C0.205,-0.004 0.181,-0.004 0.157,-0.004C0.131,-0.004 0.105,-0.004 0.079,-0.003C0.052,-0.002 0.032,-0.001 0.019,-0L0.019,-0.021C0.042,-0.021 0.059,-0.026 0.069,-0.036C0.078,-0.046 0.083,-0.065 0.083,-0.093L0.083,-0.662C0.083,-0.692 0.079,-0.714 0.07,-0.729C0.061,-0.743 0.044,-0.75 0.019,-0.75L0.019,-0.771C0.04,-0.769 0.061,-0.768 0.081,-0.768C0.108,-0.768 0.134,-0.769 0.159,-0.772C0.184,-0.774 0.206,-0.777 0.227,-0.782Z" style="fill:rgb(64,64,64);fill-rule:nonzero;"/>
                </g>
            </g>
            <g transform="matrix(1.02238,0.408685,-0.371182,0.92856,9.66973,-408.691)">
                <g transform="matrix(6.43987,0,0,6.43987,1015.27,87.2613)">
                    <path d="M0.282,-0.531C0.331,-0.531 0.373,-0.522 0.41,-0.504C0.447,-0.486 0.475,-0.457 0.496,-0.417C0.517,-0.377 0.527,-0.324 0.527,-0.258C0.527,-0.192 0.517,-0.139 0.496,-0.1C0.475,-0.06 0.447,-0.031 0.41,-0.013C0.373,0.005 0.331,0.014 0.282,0.014C0.235,0.014 0.193,0.005 0.156,-0.013C0.118,-0.031 0.09,-0.06 0.069,-0.1C0.048,-0.139 0.037,-0.192 0.037,-0.258C0.037,-0.324 0.048,-0.377 0.069,-0.417C0.09,-0.457 0.118,-0.486 0.156,-0.504C0.193,-0.522 0.235,-0.531 0.282,-0.531ZM0.282,-0.511C0.255,-0.511 0.233,-0.491 0.215,-0.452C0.197,-0.412 0.188,-0.347 0.188,-0.258C0.188,-0.169 0.197,-0.104 0.215,-0.065C0.233,-0.026 0.255,-0.006 0.282,-0.006C0.309,-0.006 0.332,-0.026 0.349,-0.065C0.367,-0.104 0.376,-0.169 0.376,-0.258C0.376,-0.347 0.367,-0.412 0.349,-0.452C0.332,-0.491 0.309,-0.511 0.282,-0.511Z" style="fill:rgb(64,64,64);fill-rule:nonzero;"/>
                </g>
            </g>
            <g transform="matrix(1.00105,0.458458,-0.416387,0.909187,35.897,-459.096)">
                <g transform="matrix(6.43987,0,0,6.43987,1018.98,88.7753)">
                    <path d="M0.144,-0.782C0.165,-0.782 0.184,-0.774 0.201,-0.756C0.218,-0.74 0.226,-0.715 0.226,-0.684C0.226,-0.655 0.223,-0.623 0.216,-0.587C0.209,-0.551 0.201,-0.512 0.192,-0.47C0.183,-0.429 0.174,-0.385 0.167,-0.339C0.16,-0.293 0.155,-0.245 0.153,-0.196L0.135,-0.196C0.134,-0.245 0.129,-0.293 0.122,-0.339C0.114,-0.385 0.106,-0.429 0.097,-0.47C0.087,-0.512 0.08,-0.551 0.073,-0.587C0.066,-0.623 0.062,-0.655 0.062,-0.684C0.062,-0.715 0.07,-0.74 0.086,-0.756C0.101,-0.774 0.121,-0.782 0.144,-0.782ZM0.144,-0.14C0.17,-0.14 0.191,-0.133 0.206,-0.119C0.221,-0.106 0.229,-0.087 0.229,-0.063C0.229,-0.039 0.221,-0.02 0.206,-0.007C0.191,0.007 0.17,0.014 0.144,0.014C0.118,0.014 0.097,0.007 0.082,-0.007C0.067,-0.02 0.059,-0.039 0.059,-0.063C0.059,-0.087 0.067,-0.106 0.082,-0.119C0.097,-0.133 0.118,-0.14 0.144,-0.14Z" style="fill:rgb(64,64,64);fill-rule:nonzero;"/>
                </g>
            </g>
        </g>
    </g>
</svg>
