<?xml version="1.0" encoding="UTF-8" standalone="no"?>
<!DOCTYPE svg PUBLIC "-//W3C//DTD SVG 1.1//EN" "http://www.w3.org/Graphics/SVG/1.1/DTD/svg11.dtd">
<svg width="100%" height="100%" viewBox="0 0 498 45" version="1.1" xmlns="http://www.w3.org/2000/svg" xmlns:xlink="http://www.w3.org/1999/xlink" xml:space="preserve" xmlns:serif="http://www.serif.com/" style="fill-rule:evenodd;clip-rule:evenodd;stroke-linejoin:round;stroke-miterlimit:2;">
    <g>
        <path d="M428.219,2.692C428.219,2.692 429.079,5.519 429.936,8.336C430.999,11.827 433.731,14.559 437.223,15.622C440.039,16.479 442.866,17.34 442.866,17.34C442.866,17.34 440.039,18.2 437.223,19.057C433.731,20.12 430.999,22.852 429.936,26.344C429.079,29.16 428.219,31.987 428.219,31.987C428.219,31.987 427.358,29.16 426.501,26.344C425.438,22.852 422.706,20.12 419.215,19.057C416.398,18.2 413.571,17.34 413.571,17.34C413.571,17.34 416.398,16.479 419.215,15.622C422.706,14.559 425.438,11.827 426.501,8.336C427.358,5.519 428.219,2.692 428.219,2.692Z" style="fill:rgb(253,234,160);"/>
        <path d="M467.376,26.05C467.376,26.05 467.538,26.584 467.772,27.354C468.835,30.845 471.567,33.578 475.059,34.64C475.829,34.875 476.362,35.037 476.362,35.037C476.362,35.037 475.829,35.199 475.059,35.434C471.567,36.496 468.835,39.229 467.772,42.72C467.538,43.49 467.376,44.024 467.376,44.024C467.376,44.024 467.213,43.49 466.979,42.72C465.916,39.229 463.184,36.496 459.693,35.434C458.923,35.199 458.389,35.037 458.389,35.037C458.389,35.037 458.923,34.875 459.693,34.64C463.184,33.578 465.916,30.845 466.979,27.354C467.213,26.584 467.376,26.05 467.376,26.05Z" style="fill:rgb(253,234,160);"/>
        <path d="M490.092,0C490.092,-0 490.092,0 490.093,0C491.122,3.382 493.768,6.028 497.149,7.057C497.15,7.057 497.15,7.058 497.15,7.058C497.15,7.058 497.15,7.058 497.149,7.058C493.768,8.087 491.122,10.733 490.093,14.115C490.092,14.115 490.092,14.115 490.092,14.115C490.092,14.115 490.092,14.115 490.092,14.115C489.063,10.733 486.417,8.087 483.035,7.058C483.035,7.058 483.035,7.058 483.035,7.058C483.035,7.058 483.035,7.057 483.035,7.057C486.417,6.028 489.063,3.382 490.092,0C490.092,0 490.092,-0 490.092,0Z" style="fill:rgb(253,234,160);"/>
    </g>
    <g>
        <path d="M68.931,41.331C68.931,41.331 68.071,38.505 67.214,35.688C66.151,32.196 63.419,29.464 59.927,28.402C57.111,27.544 54.284,26.684 54.284,26.684C54.284,26.684 57.111,25.823 59.927,24.966C63.419,23.903 66.151,21.171 67.214,17.68C68.071,14.863 68.931,12.036 68.931,12.036C68.931,12.036 69.792,14.863 70.649,17.68C71.712,21.171 74.444,23.903 77.935,24.966C80.752,25.823 83.579,26.684 83.579,26.684C83.579,26.684 80.752,27.544 77.935,28.402C74.444,29.464 71.712,32.196 70.649,35.688C69.792,38.505 68.931,41.331 68.931,41.331Z" style="fill:rgb(253,234,160);"/>
        <path d="M29.774,17.973C29.774,17.973 29.612,17.44 29.377,16.669C28.315,13.178 25.583,10.446 22.091,9.383C21.321,9.149 20.788,8.987 20.788,8.987C20.788,8.987 21.321,8.824 22.091,8.59C25.583,7.527 28.315,4.795 29.377,1.304C29.612,0.534 29.774,0 29.774,0C29.774,0 29.937,0.534 30.171,1.304C31.234,4.795 33.966,7.527 37.457,8.59C38.227,8.824 38.761,8.987 38.761,8.987C38.761,8.987 38.227,9.149 37.457,9.383C33.966,10.446 31.234,13.178 30.171,16.669C29.937,17.44 29.774,17.973 29.774,17.973Z" style="fill:rgb(253,234,160);"/>
        <path d="M7.058,44.024C7.058,44.024 7.057,44.023 7.057,44.023C6.028,40.642 3.382,37.995 0,36.966C0,36.966 0,36.966 0,36.966C0,36.966 0,36.966 0,36.966C3.382,35.937 6.028,33.29 7.057,29.909C7.057,29.909 7.058,29.909 7.058,29.909C7.058,29.909 7.058,29.909 7.058,29.909C8.087,33.29 10.733,35.937 14.115,36.966C14.115,36.966 14.115,36.966 14.115,36.966C14.115,36.966 14.115,36.966 14.115,36.966C10.733,37.995 8.087,40.642 7.058,44.023C7.058,44.023 7.058,44.024 7.058,44.024Z" style="fill:rgb(253,234,160);"/>
    </g>
    <path d="M137.923,8.212L137.923,9.011C137.071,9.118 136.431,9.338 136.005,9.671C135.578,10.004 135.292,10.53 135.145,11.25C134.999,11.969 134.926,12.982 134.926,14.287L134.926,36.589C134.606,36.563 134.279,36.55 133.946,36.55C133.613,36.55 133.26,36.563 132.887,36.589L115.541,14.607L115.541,29.955C115.541,31.42 115.621,32.546 115.781,33.332C115.941,34.118 116.294,34.678 116.84,35.011C117.386,35.344 118.246,35.577 119.418,35.71L119.418,36.51C118.912,36.456 118.246,36.423 117.42,36.41C116.594,36.396 115.821,36.39 115.101,36.39C114.489,36.39 113.862,36.396 113.223,36.41C112.583,36.423 112.051,36.456 111.624,36.51L111.624,35.71C112.477,35.577 113.116,35.35 113.543,35.031C113.969,34.711 114.255,34.185 114.402,33.452C114.549,32.719 114.622,31.713 114.622,30.434L114.622,12.449C114.622,11.463 114.549,10.737 114.402,10.27C114.255,9.804 113.962,9.484 113.523,9.311C113.083,9.138 112.45,9.038 111.624,9.011L111.624,8.212C112.051,8.239 112.583,8.265 113.223,8.292C113.862,8.319 114.489,8.332 115.101,8.332C115.741,8.332 116.354,8.319 116.94,8.292C117.526,8.265 118.059,8.239 118.539,8.212L134.006,27.277L134.006,14.767C134.006,13.301 133.926,12.176 133.767,11.39C133.607,10.604 133.254,10.037 132.707,9.691C132.161,9.345 131.302,9.118 130.129,9.011L130.129,8.212C130.636,8.239 131.302,8.265 132.128,8.292C132.954,8.319 133.727,8.332 134.446,8.332C135.085,8.332 135.718,8.319 136.344,8.292C136.971,8.265 137.497,8.239 137.923,8.212Z" style="fill:rgb(115,87,76);fill-rule:nonzero;"/>
    <path d="M149.554,15.286C151.899,15.286 153.737,15.979 155.07,17.365C156.402,18.75 157.068,21.015 157.068,24.159L143.918,24.159L143.838,23.4L152.032,23.4C152.059,22.094 151.979,20.889 151.792,19.783C151.606,18.677 151.313,17.791 150.913,17.125C150.513,16.459 149.98,16.126 149.314,16.126C148.382,16.126 147.589,16.712 146.936,17.884C146.283,19.057 145.89,21.002 145.757,23.72L145.877,23.96C145.85,24.279 145.83,24.612 145.817,24.959C145.804,25.305 145.797,25.665 145.797,26.038C145.797,27.876 146.057,29.369 146.576,30.514C147.096,31.66 147.755,32.493 148.555,33.012C149.354,33.532 150.167,33.792 150.993,33.792C151.792,33.792 152.665,33.592 153.611,33.192C154.557,32.793 155.443,31.927 156.269,30.594L156.988,30.834C156.668,31.847 156.162,32.832 155.469,33.792C154.776,34.751 153.897,35.537 152.831,36.15C151.766,36.763 150.487,37.069 148.994,37.069C147.182,37.069 145.584,36.683 144.198,35.91C142.813,35.137 141.727,33.965 140.941,32.393C140.155,30.821 139.762,28.822 139.762,26.398C139.762,23.92 140.181,21.855 141.021,20.203C141.86,18.551 143.019,17.318 144.498,16.505C145.977,15.693 147.662,15.286 149.554,15.286Z" style="fill:rgb(115,87,76);fill-rule:nonzero;"/>
    <path d="M168.619,15.846L168.619,16.685C168.033,16.685 167.52,16.719 167.08,16.785C166.64,16.852 166.347,17.045 166.201,17.365C166.054,17.685 166.101,18.204 166.341,18.924L170.138,30.794L169.618,31.354L174.294,15.806L175.094,16.166L168.978,36.589C168.552,36.563 168.126,36.55 167.699,36.55C167.273,36.55 166.833,36.563 166.381,36.589L160.066,18.924C159.693,17.858 159.286,17.218 158.847,17.005C158.407,16.792 158.04,16.685 157.747,16.685L157.747,15.846C158.6,15.926 159.486,15.986 160.405,16.026C161.325,16.066 162.33,16.086 163.423,16.086C164.249,16.086 165.122,16.059 166.041,16.006C166.96,15.953 167.819,15.899 168.619,15.846ZM189.482,15.846L189.482,16.645C188.976,16.779 188.496,17.085 188.043,17.565C187.59,18.044 187.164,18.884 186.764,20.083L181.449,36.589C181.022,36.563 180.589,36.55 180.15,36.55C179.71,36.55 179.277,36.563 178.851,36.589L173.215,21.202L174.294,15.806C174.774,15.833 175.26,15.839 175.753,15.826C176.246,15.813 176.732,15.806 177.212,15.806L182.688,31.953L182.248,31.514L184.926,23.04C185.619,20.855 185.692,19.27 185.146,18.284C184.599,17.298 183.66,16.752 182.328,16.645L182.328,15.846C182.754,15.873 183.214,15.893 183.707,15.906C184.2,15.919 184.693,15.933 185.186,15.946C185.678,15.959 186.098,15.966 186.445,15.966C186.977,15.966 187.53,15.953 188.103,15.926C188.676,15.899 189.136,15.873 189.482,15.846Z" style="fill:rgb(115,87,76);fill-rule:nonzero;"/>
    <path d="M197.875,15.286C198.995,15.286 199.974,15.426 200.813,15.706C201.652,15.986 202.259,16.259 202.632,16.525C203.538,17.138 204.097,16.739 204.31,15.326L205.15,15.326C205.096,16.072 205.056,16.985 205.03,18.064C205.003,19.143 204.99,20.576 204.99,22.361L204.15,22.361C204.017,21.375 203.764,20.402 203.391,19.443C203.018,18.484 202.478,17.698 201.772,17.085C201.066,16.472 200.154,16.166 199.034,16.166C198.262,16.166 197.609,16.386 197.076,16.825C196.543,17.265 196.277,17.898 196.277,18.724C196.277,19.523 196.516,20.223 196.996,20.822C197.476,21.422 198.095,21.994 198.855,22.541C199.614,23.087 200.407,23.666 201.233,24.279C202.565,25.265 203.691,26.258 204.61,27.257C205.529,28.256 205.989,29.555 205.989,31.154C205.989,32.353 205.643,33.399 204.95,34.291C204.257,35.184 203.344,35.87 202.212,36.35C201.08,36.829 199.821,37.069 198.435,37.069C197.636,37.069 196.923,36.989 196.297,36.829C195.67,36.669 195.131,36.47 194.678,36.23C194.332,36.07 194.005,35.917 193.699,35.77C193.392,35.624 193.106,35.497 192.839,35.39C192.573,35.31 192.34,35.404 192.14,35.67C191.94,35.937 191.787,36.31 191.68,36.789L190.841,36.789C190.894,35.937 190.934,34.897 190.961,33.672C190.988,32.446 191.001,30.821 191.001,28.796L191.84,28.796C192,30.235 192.293,31.507 192.72,32.613C193.146,33.718 193.725,34.584 194.458,35.211C195.191,35.837 196.117,36.15 197.236,36.15C197.929,36.15 198.568,35.93 199.154,35.49C199.741,35.051 200.034,34.325 200.034,33.312C200.034,32.14 199.654,31.167 198.895,30.394C198.135,29.622 197.169,28.782 195.997,27.876C195.144,27.184 194.338,26.498 193.579,25.818C192.819,25.139 192.2,24.393 191.72,23.58C191.241,22.767 191.001,21.841 191.001,20.802C191.001,19.603 191.321,18.59 191.96,17.764C192.6,16.938 193.446,16.319 194.498,15.906C195.551,15.493 196.676,15.286 197.875,15.286Z" style="fill:rgb(115,87,76);fill-rule:nonzero;"/>
    <path d="M229.97,8.132C231.009,8.132 231.848,8.205 232.488,8.352C233.127,8.499 233.674,8.705 234.126,8.971C234.739,9.265 235.299,9.678 235.805,10.211C236.311,10.743 236.565,11.41 236.565,12.209C236.565,13.008 236.258,13.648 235.645,14.127C235.032,14.607 234.313,14.847 233.487,14.847C232.688,14.847 232.002,14.647 231.429,14.247C230.856,13.848 230.569,13.221 230.569,12.369C230.569,11.703 230.809,11.096 231.289,10.55C231.768,10.004 232.381,9.664 233.127,9.531C232.941,9.318 232.601,9.145 232.108,9.011C231.615,8.878 231.076,8.812 230.489,8.812C229.104,8.812 227.925,9.245 226.952,10.111C225.98,10.977 225.493,12.289 225.493,14.047C225.493,14.66 225.6,15.313 225.813,16.006C226.026,16.699 226.439,17.405 227.052,18.124C227.505,18.018 227.925,17.938 228.311,17.884C228.697,17.831 229.024,17.804 229.29,17.804C230.276,17.804 230.769,18.164 230.769,18.884C230.769,19.123 230.663,19.323 230.449,19.483C230.236,19.643 229.97,19.723 229.65,19.723C229.197,19.723 228.731,19.596 228.251,19.343C227.772,19.09 227.385,18.87 227.092,18.684C225.84,19.323 224.821,20.143 224.035,21.142C223.249,22.141 222.855,23.48 222.855,25.159C222.855,26.917 223.335,28.363 224.294,29.495C225.254,30.628 226.606,31.48 228.351,32.053C230.096,32.626 232.155,32.912 234.526,32.912C235.858,32.912 237.177,32.766 238.483,32.473C239.789,32.18 240.968,31.74 242.02,31.154C243.073,30.568 243.919,29.842 244.558,28.976C245.198,28.11 245.517,27.104 245.517,25.958C245.517,25.532 245.457,24.992 245.338,24.339C245.218,23.686 244.931,23.034 244.478,22.381C244.025,21.728 243.279,21.188 242.24,20.762L242.52,20.402C243.959,20.855 245.051,21.708 245.797,22.96C246.543,24.213 246.916,25.652 246.916,27.277C246.916,29.142 246.343,30.814 245.198,32.293C244.052,33.772 242.447,34.937 240.382,35.79C238.316,36.643 235.898,37.069 233.127,37.069C230.196,37.069 227.625,36.669 225.413,35.87C223.202,35.071 221.483,33.925 220.258,32.433C219.032,30.941 218.419,29.169 218.419,27.117C218.419,25.625 218.732,24.353 219.358,23.3C219.984,22.248 220.75,21.382 221.656,20.702C222.562,20.023 223.468,19.496 224.374,19.123C225.28,18.75 226,18.497 226.533,18.364C225.28,17.858 224.214,17.198 223.335,16.386C222.456,15.573 222.016,14.554 222.016,13.328C222.016,12.475 222.243,11.723 222.696,11.07C223.149,10.417 223.755,9.877 224.514,9.451C225.274,9.025 226.126,8.698 227.072,8.472C228.018,8.245 228.984,8.132 229.97,8.132ZM245.677,7.653C247.569,7.653 249.101,8.145 250.274,9.131C251.446,10.117 252.032,11.503 252.032,13.288C252.032,15.34 251.306,16.905 249.854,17.984C248.402,19.063 246.423,19.869 243.919,20.402C243.546,20.536 243.079,20.689 242.52,20.862C241.96,21.035 241.387,21.202 240.801,21.362C240.215,21.521 239.649,21.681 239.103,21.841C238.556,22.001 238.083,22.134 237.684,22.241C235.605,22.694 234.007,23.207 232.887,23.78C231.768,24.353 231.209,25.132 231.209,26.118C231.209,26.784 231.429,27.357 231.868,27.836C232.308,28.316 232.861,28.689 233.527,28.956C234.193,29.222 234.859,29.355 235.525,29.355C235.792,29.355 236.092,29.322 236.425,29.255C236.758,29.189 236.991,29.089 237.124,28.956C236.458,28.742 235.958,28.403 235.625,27.936C235.292,27.47 235.126,26.931 235.126,26.318C235.126,25.465 235.432,24.812 236.045,24.359C236.658,23.906 237.417,23.68 238.323,23.68C239.282,23.68 240.035,23.933 240.581,24.439C241.128,24.945 241.401,25.598 241.401,26.398C241.401,27.224 241.148,27.91 240.641,28.456C240.135,29.002 239.456,29.402 238.603,29.655C237.75,29.908 236.791,30.035 235.725,30.035C234.686,30.035 233.707,29.848 232.788,29.475C231.868,29.102 231.136,28.536 230.589,27.777C230.043,27.017 229.77,26.065 229.77,24.919C229.77,22.84 230.569,21.228 232.168,20.083C233.767,18.937 235.952,18.098 238.723,17.565C239.282,17.431 239.902,17.278 240.581,17.105C241.261,16.932 241.96,16.752 242.68,16.565C243.399,16.379 244.065,16.179 244.678,15.966C246.597,15.486 248.082,14.953 249.135,14.367C250.187,13.781 250.713,12.995 250.713,12.009C250.713,10.917 250.24,10.037 249.294,9.371C248.348,8.705 247.316,8.372 246.197,8.372C245.957,8.372 245.737,8.385 245.537,8.412C245.338,8.439 245.171,8.492 245.038,8.572C245.704,8.812 246.197,9.171 246.517,9.651C246.836,10.131 246.996,10.61 246.996,11.09C246.996,11.916 246.69,12.549 246.077,12.988C245.464,13.428 244.705,13.648 243.799,13.648C242.893,13.648 242.147,13.415 241.561,12.948C240.974,12.482 240.681,11.836 240.681,11.01C240.681,10.29 240.888,9.684 241.301,9.191C241.714,8.698 242.293,8.319 243.039,8.052C243.785,7.786 244.665,7.653 245.677,7.653Z" style="fill:rgb(115,87,76);fill-rule:nonzero;"/>
    <path d="M263.343,8.212C264.009,8.239 264.909,8.265 266.041,8.292C267.173,8.319 268.299,8.332 269.418,8.332C270.697,8.332 271.936,8.319 273.135,8.292C274.334,8.265 275.187,8.252 275.693,8.252C279.397,8.252 282.168,8.985 284.007,10.45C285.845,11.916 286.765,13.808 286.765,16.126C286.765,17.085 286.578,18.091 286.205,19.143C285.832,20.196 285.199,21.168 284.306,22.061C283.414,22.954 282.195,23.68 280.649,24.239C279.104,24.799 277.159,25.079 274.814,25.079L270.737,25.079L270.737,24.279L274.414,24.279C275.986,24.279 277.179,23.92 277.992,23.2C278.804,22.481 279.364,21.535 279.67,20.362C279.977,19.19 280.13,17.924 280.13,16.565C280.13,14.034 279.757,12.142 279.011,10.89C278.265,9.638 276.986,9.011 275.174,9.011C274.135,9.011 273.462,9.238 273.155,9.691C272.849,10.144 272.696,11.063 272.696,12.449L272.696,32.033C272.696,33.072 272.802,33.845 273.015,34.351C273.229,34.858 273.642,35.191 274.254,35.35C274.867,35.51 275.773,35.604 276.972,35.63L276.972,36.51C276.146,36.483 275.081,36.456 273.775,36.43C272.469,36.403 271.097,36.39 269.658,36.39C268.512,36.39 267.393,36.403 266.301,36.43C265.208,36.456 264.222,36.483 263.343,36.51L263.343,35.71C264.196,35.657 264.835,35.55 265.262,35.39C265.688,35.231 265.974,34.911 266.121,34.431C266.268,33.952 266.341,33.232 266.341,32.273L266.341,12.449C266.341,11.463 266.268,10.737 266.121,10.27C265.974,9.804 265.681,9.484 265.242,9.311C264.802,9.138 264.169,9.038 263.343,9.011L263.343,8.212Z" style="fill:rgb(115,87,76);fill-rule:nonzero;"/>
    <path d="M302.312,15.286C303.165,15.286 303.858,15.466 304.39,15.826C304.923,16.186 305.316,16.645 305.57,17.205C305.823,17.764 305.949,18.351 305.949,18.964C305.949,19.949 305.663,20.755 305.09,21.382C304.517,22.008 303.764,22.321 302.832,22.321C301.899,22.321 301.173,22.088 300.653,21.621C300.134,21.155 299.874,20.536 299.874,19.763C299.874,19.017 300.041,18.397 300.374,17.904C300.707,17.411 301.126,16.992 301.633,16.645C301.26,16.539 300.887,16.552 300.514,16.685C299.821,16.792 299.201,17.118 298.655,17.665C298.109,18.211 297.676,18.857 297.356,19.603C297.036,20.349 296.876,21.082 296.876,21.801L296.876,32.393C296.876,33.672 297.19,34.538 297.816,34.991C298.442,35.444 299.381,35.67 300.633,35.67L300.633,36.51C300.021,36.483 299.128,36.45 297.956,36.41C296.783,36.37 295.558,36.35 294.279,36.35C293.213,36.35 292.134,36.37 291.041,36.41C289.949,36.45 289.123,36.483 288.563,36.51L288.563,35.67C289.496,35.67 290.155,35.47 290.542,35.071C290.928,34.671 291.121,33.912 291.121,32.793L291.121,20.203C291.121,19.003 290.941,18.118 290.581,17.545C290.222,16.972 289.549,16.685 288.563,16.685L288.563,15.846C289.416,15.926 290.242,15.966 291.041,15.966C292.16,15.966 293.206,15.919 294.179,15.826C295.151,15.733 296.05,15.593 296.876,15.406L296.876,19.123C297.196,18.404 297.623,17.751 298.155,17.165C298.688,16.579 299.301,16.119 299.994,15.786C300.687,15.453 301.459,15.286 302.312,15.286Z" style="fill:rgb(115,87,76);fill-rule:nonzero;"/>
    <path d="M316.98,15.286C318.926,15.286 320.631,15.646 322.096,16.366C323.562,17.085 324.708,18.244 325.534,19.843C326.36,21.442 326.773,23.56 326.773,26.198C326.773,28.836 326.36,30.947 325.534,32.533C324.708,34.118 323.562,35.271 322.096,35.99C320.631,36.709 318.926,37.069 316.98,37.069C315.089,37.069 313.403,36.709 311.924,35.99C310.446,35.271 309.287,34.118 308.447,32.533C307.608,30.947 307.188,28.836 307.188,26.198C307.188,23.56 307.608,21.442 308.447,19.843C309.287,18.244 310.446,17.085 311.924,16.366C313.403,15.646 315.089,15.286 316.98,15.286ZM316.98,16.086C315.915,16.086 315.022,16.879 314.303,18.464C313.583,20.049 313.223,22.627 313.223,26.198C313.223,29.768 313.583,32.34 314.303,33.912C315.022,35.484 315.915,36.27 316.98,36.27C318.073,36.27 318.972,35.484 319.678,33.912C320.384,32.34 320.737,29.768 320.737,26.198C320.737,22.627 320.384,20.049 319.678,18.464C318.972,16.879 318.073,16.086 316.98,16.086Z" style="fill:rgb(115,87,76);fill-rule:nonzero;"/>
    <path d="M343.759,15.286C344.878,15.286 345.784,15.426 346.477,15.706C347.17,15.986 347.729,16.366 348.156,16.845C348.582,17.351 348.888,18.011 349.075,18.824C349.261,19.636 349.355,20.709 349.355,22.041L349.355,32.793C349.355,33.912 349.528,34.671 349.874,35.071C350.221,35.47 350.82,35.67 351.673,35.67L351.673,36.51C351.193,36.483 350.467,36.45 349.495,36.41C348.522,36.37 347.569,36.35 346.637,36.35C345.678,36.35 344.732,36.37 343.799,36.41C342.866,36.45 342.16,36.483 341.681,36.51L341.681,35.67C342.4,35.67 342.9,35.47 343.18,35.071C343.459,34.671 343.599,33.912 343.599,32.793L343.599,20.362C343.599,19.696 343.546,19.117 343.439,18.624C343.333,18.131 343.126,17.745 342.82,17.465C342.513,17.185 342.054,17.045 341.441,17.045C340.748,17.045 340.109,17.245 339.522,17.645C338.936,18.044 338.463,18.597 338.104,19.303C337.744,20.009 337.564,20.802 337.564,21.681L337.564,32.793C337.564,33.912 337.711,34.671 338.004,35.071C338.297,35.47 338.79,35.67 339.482,35.67L339.482,36.51C339.056,36.483 338.397,36.45 337.504,36.41C336.611,36.37 335.699,36.35 334.766,36.35C333.754,36.35 332.715,36.37 331.649,36.41C330.583,36.45 329.784,36.483 329.251,36.51L329.251,35.67C330.183,35.67 330.843,35.47 331.229,35.071C331.615,34.671 331.809,33.912 331.809,32.793L331.809,20.203C331.809,19.003 331.629,18.118 331.269,17.545C330.909,16.972 330.237,16.685 329.251,16.685L329.251,15.846C330.103,15.926 330.929,15.966 331.729,15.966C332.848,15.966 333.894,15.919 334.866,15.826C335.839,15.733 336.738,15.593 337.564,15.406L337.564,19.003C338.204,17.671 339.069,16.719 340.162,16.146C341.254,15.573 342.453,15.286 343.759,15.286ZM355.789,15.286C356.909,15.286 357.815,15.426 358.507,15.706C359.2,15.986 359.76,16.366 360.186,16.845C360.612,17.351 360.919,18.011 361.105,18.824C361.292,19.636 361.385,20.709 361.385,22.041L361.385,32.793C361.385,33.912 361.578,34.671 361.965,35.071C362.351,35.47 363.01,35.67 363.943,35.67L363.943,36.51C363.437,36.483 362.677,36.45 361.665,36.41C360.652,36.37 359.653,36.35 358.667,36.35C357.708,36.35 356.762,36.37 355.829,36.41C354.897,36.45 354.191,36.483 353.711,36.51L353.711,35.67C354.431,35.67 354.93,35.47 355.21,35.071C355.49,34.671 355.63,33.912 355.63,32.793L355.63,20.362C355.63,19.696 355.57,19.117 355.45,18.624C355.33,18.131 355.103,17.745 354.77,17.465C354.437,17.185 353.924,17.045 353.232,17.045C352.192,17.045 351.286,17.505 350.514,18.424C349.741,19.343 349.341,20.469 349.315,21.801L349.115,19.363C349.834,17.764 350.787,16.685 351.973,16.126C353.158,15.566 354.431,15.286 355.789,15.286Z" style="fill:rgb(115,87,76);fill-rule:nonzero;"/>
    <path d="M375.734,15.286C377.679,15.286 379.384,15.646 380.85,16.366C382.315,17.085 383.461,18.244 384.287,19.843C385.113,21.442 385.526,23.56 385.526,26.198C385.526,28.836 385.113,30.947 384.287,32.533C383.461,34.118 382.315,35.271 380.85,35.99C379.384,36.709 377.679,37.069 375.734,37.069C373.842,37.069 372.156,36.709 370.678,35.99C369.199,35.271 368.04,34.118 367.2,32.533C366.361,30.947 365.941,28.836 365.941,26.198C365.941,23.56 366.361,21.442 367.2,19.843C368.04,18.244 369.199,17.085 370.678,16.366C372.156,15.646 373.842,15.286 375.734,15.286ZM375.734,16.086C374.668,16.086 373.775,16.879 373.056,18.464C372.336,20.049 371.977,22.627 371.977,26.198C371.977,29.768 372.336,32.34 373.056,33.912C373.775,35.484 374.668,36.27 375.734,36.27C376.826,36.27 377.725,35.484 378.431,33.912C379.138,32.34 379.491,29.768 379.491,26.198C379.491,22.627 379.138,20.049 378.431,18.464C377.725,16.879 376.826,16.086 375.734,16.086Z" style="fill:rgb(115,87,76);fill-rule:nonzero;"/>
</svg>
