<?xml version="1.0" encoding="UTF-8" standalone="no"?>
<!DOCTYPE svg PUBLIC "-//W3C//DTD SVG 1.1//EN" "http://www.w3.org/Graphics/SVG/1.1/DTD/svg11.dtd">
<svg width="100%" height="100%" viewBox="0 0 817 40" version="1.1" xmlns="http://www.w3.org/2000/svg" xmlns:xlink="http://www.w3.org/1999/xlink" xml:space="preserve" xmlns:serif="http://www.serif.com/" style="fill-rule:evenodd;clip-rule:evenodd;stroke-linejoin:round;stroke-miterlimit:2;">
    <g>
        <g>
            <g>
                <path d="M754.129,2.44C754.129,2.44 754.805,4.662 755.526,7.03C756.589,10.521 759.321,13.253 762.812,14.316C765.18,15.036 767.402,15.713 767.402,15.713C767.402,15.713 765.18,16.389 762.812,17.11C759.321,18.172 756.589,20.905 755.526,24.396C754.805,26.764 754.129,28.986 754.129,28.986C754.129,28.986 753.453,26.764 752.732,24.396C751.669,20.905 748.937,18.172 745.446,17.11C743.078,16.389 740.856,15.713 740.856,15.713C740.856,15.713 743.078,15.036 745.446,14.316C748.937,13.253 751.669,10.521 752.732,7.03C753.453,4.662 754.129,2.44 754.129,2.44Z" style="fill:rgb(253,234,160);"/>
                <path d="M789.612,23.606C789.612,23.606 789.689,23.859 789.812,24.264C790.875,27.755 793.607,30.487 797.098,31.55C797.502,31.673 797.755,31.75 797.755,31.75C797.755,31.75 797.502,31.827 797.098,31.95C793.607,33.012 790.875,35.745 789.812,39.236C789.689,39.64 789.612,39.893 789.612,39.893C789.612,39.893 789.535,39.64 789.412,39.236C788.349,35.745 785.617,33.012 782.126,31.95C781.722,31.827 781.469,31.75 781.469,31.75C781.469,31.75 781.722,31.673 782.126,31.55C785.617,30.487 788.349,27.755 789.412,24.264C789.535,23.859 789.612,23.606 789.612,23.606Z" style="fill:rgb(253,234,160);"/>
                <path d="M810.197,0C810.197,-0 810.198,0 810.198,0.001C811.13,3.065 813.528,5.463 816.592,6.395C816.592,6.395 816.593,6.395 816.593,6.395C816.593,6.395 816.592,6.395 816.592,6.396C813.528,7.328 811.13,9.726 810.198,12.79C810.198,12.79 810.197,12.791 810.197,12.791C810.197,12.791 810.197,12.79 810.197,12.79C809.265,9.726 806.867,7.328 803.803,6.396C803.802,6.395 803.802,6.395 803.802,6.395C803.802,6.395 803.802,6.395 803.803,6.395C806.867,5.463 809.265,3.065 810.197,0.001C810.197,0 810.197,-0 810.197,0Z" style="fill:rgb(253,234,160);"/>
            </g>
            <g>
                <path d="M62.464,37.453C62.464,37.453 61.787,35.231 61.067,32.863C60.004,29.372 57.272,26.64 53.781,25.577C51.413,24.857 49.191,24.18 49.191,24.18C49.191,24.18 51.413,23.504 53.781,22.783C57.272,21.721 60.004,18.988 61.067,15.497C61.787,13.13 62.464,10.907 62.464,10.907C62.464,10.907 63.14,13.13 63.861,15.497C64.923,18.988 67.656,21.721 71.147,22.783C73.515,23.504 75.737,24.18 75.737,24.18C75.737,24.18 73.515,24.857 71.147,25.577C67.656,26.64 64.923,29.372 63.861,32.863C63.14,35.231 62.464,37.453 62.464,37.453Z" style="fill:rgb(253,234,160);"/>
                <path d="M26.981,16.287C26.981,16.287 26.904,16.034 26.781,15.63C25.718,12.138 22.986,9.406 19.495,8.343C19.09,8.22 18.837,8.143 18.837,8.143C18.837,8.143 19.09,8.066 19.495,7.943C22.986,6.881 25.718,4.148 26.781,0.657C26.904,0.253 26.981,0 26.981,0C26.981,0 27.058,0.253 27.181,0.657C28.243,4.148 30.976,6.881 34.467,7.943C34.871,8.066 35.124,8.143 35.124,8.143C35.124,8.143 34.871,8.22 34.467,8.343C30.976,9.406 28.243,12.138 27.181,15.63C27.058,16.034 26.981,16.287 26.981,16.287Z" style="fill:rgb(253,234,160);"/>
                <path d="M6.395,39.893C6.395,39.893 6.395,39.893 6.395,39.892C5.463,36.828 3.065,34.431 0.001,33.498C0,33.498 0,33.498 -0,33.498C0,33.498 0,33.498 0.001,33.497C3.065,32.565 5.463,30.167 6.395,27.103C6.395,27.103 6.395,27.102 6.395,27.102C6.395,27.102 6.395,27.103 6.396,27.103C7.328,30.167 9.726,32.565 12.79,33.497C12.79,33.498 12.791,33.498 12.791,33.498C12.791,33.498 12.79,33.498 12.79,33.498C9.726,34.431 7.328,36.828 6.396,39.892C6.395,39.893 6.395,39.893 6.395,39.893Z" style="fill:rgb(253,234,160);"/>
            </g>
            <path d="M110.71,7.369L119.511,30.042C119.849,30.911 120.229,31.509 120.652,31.835C121.074,32.161 121.455,32.336 121.793,32.36L121.793,33.084C121.068,33.036 120.217,33.006 119.239,32.994C118.261,32.981 117.277,32.975 116.287,32.975C115.177,32.975 114.126,32.981 113.136,32.994C112.146,33.006 111.362,33.036 110.782,33.084L110.782,32.36C112.014,32.311 112.792,32.1 113.118,31.726C113.444,31.352 113.366,30.549 112.883,29.317L106.726,12.476L107.378,11.534L101.873,25.877C101.197,27.663 100.865,29.016 100.877,29.933C100.889,30.851 101.184,31.472 101.764,31.798C102.343,32.124 103.116,32.311 104.082,32.36L104.082,33.084C103.285,33.036 102.525,33.006 101.8,32.994C101.076,32.981 100.339,32.975 99.591,32.975C99.06,32.975 98.559,32.981 98.088,32.994C97.617,33.006 97.2,33.036 96.838,33.084L96.838,32.36C97.345,32.263 97.864,31.937 98.396,31.382C98.927,30.826 99.446,29.885 99.953,28.557L108.211,7.369C108.597,7.393 109.014,7.405 109.46,7.405C109.907,7.405 110.324,7.393 110.71,7.369ZM113.245,22.653L113.245,23.378L102.452,23.378L102.814,22.653L113.245,22.653Z" style="fill:rgb(115,87,76);fill-rule:nonzero;"/>
            <path d="M140.228,4.725L140.228,29.1C140.228,30.187 140.397,30.989 140.735,31.509C141.073,32.028 141.676,32.287 142.546,32.287L142.546,33.048C141.797,32.975 141.049,32.939 140.3,32.939C139.286,32.939 138.338,32.975 137.457,33.048C136.576,33.12 135.761,33.253 135.012,33.446L135.012,9.071C135.012,7.985 134.849,7.182 134.523,6.663C134.197,6.144 133.588,5.884 132.694,5.884L132.694,5.124C133.467,5.196 134.215,5.232 134.94,5.232C135.93,5.232 136.871,5.19 137.765,5.106C138.658,5.021 139.479,4.894 140.228,4.725ZM130.992,13.852C132.054,13.852 132.99,14.027 133.799,14.377C134.608,14.727 135.242,15.313 135.7,16.134L135.266,16.532C134.952,15.953 134.535,15.536 134.016,15.283C133.497,15.029 132.948,14.903 132.368,14.903C131.137,14.903 130.159,15.621 129.435,17.058C128.71,18.494 128.36,20.71 128.384,23.704C128.384,25.756 128.523,27.392 128.801,28.611C129.078,29.83 129.477,30.706 129.996,31.237C130.515,31.768 131.113,32.034 131.789,32.034C132.61,32.034 133.346,31.708 133.998,31.056C134.65,30.404 135,29.523 135.048,28.412L135.23,29.68C134.867,30.959 134.282,31.931 133.473,32.595C132.664,33.259 131.608,33.591 130.304,33.591C128.879,33.591 127.606,33.241 126.483,32.541C125.36,31.841 124.485,30.76 123.857,29.299C123.229,27.838 122.915,25.949 122.915,23.631C122.915,21.434 123.265,19.617 123.966,18.18C124.666,16.744 125.626,15.663 126.845,14.939C128.064,14.214 129.447,13.852 130.992,13.852Z" style="fill:rgb(115,87,76);fill-rule:nonzero;"/>
            <path d="M148.848,33.338C147.23,33.338 146.059,32.915 145.334,32.07C144.61,31.225 144.248,30.199 144.248,28.991C144.248,27.953 144.483,27.108 144.954,26.456C145.425,25.804 146.035,25.267 146.783,24.844C147.532,24.422 148.322,24.072 149.155,23.794C149.988,23.516 150.785,23.239 151.546,22.961C152.306,22.683 152.922,22.363 153.393,22.001C153.864,21.639 154.099,21.18 154.099,20.625L154.099,17.8C154.099,17.172 153.997,16.611 153.791,16.116C153.586,15.621 153.272,15.241 152.85,14.975C152.427,14.709 151.878,14.577 151.202,14.577C150.719,14.577 150.236,14.643 149.753,14.776C149.27,14.909 148.872,15.132 148.558,15.446C149.234,15.687 149.759,16.055 150.133,16.55C150.508,17.045 150.695,17.607 150.695,18.235C150.695,19.056 150.411,19.707 149.844,20.19C149.276,20.673 148.606,20.915 147.833,20.915C146.964,20.915 146.306,20.643 145.86,20.1C145.413,19.557 145.19,18.899 145.19,18.126C145.19,17.426 145.365,16.846 145.715,16.387C146.065,15.929 146.554,15.494 147.182,15.084C147.858,14.697 148.673,14.395 149.626,14.178C150.58,13.961 151.612,13.852 152.723,13.852C153.834,13.852 154.836,13.967 155.729,14.196C156.622,14.426 157.371,14.842 157.975,15.446C158.53,16.001 158.892,16.683 159.061,17.492C159.23,18.301 159.315,19.321 159.315,20.553L159.315,30.404C159.315,30.983 159.375,31.394 159.496,31.635C159.616,31.877 159.822,31.998 160.111,31.998C160.353,31.998 160.582,31.937 160.8,31.816C161.017,31.696 161.222,31.551 161.415,31.382L161.777,31.998C161.27,32.432 160.685,32.764 160.021,32.994C159.357,33.223 158.614,33.338 157.793,33.338C156.345,33.338 155.385,33.042 154.914,32.45C154.443,31.859 154.196,31.177 154.172,30.404C153.568,31.394 152.826,32.13 151.944,32.613C151.063,33.096 150.031,33.338 148.848,33.338ZM151.636,31.02C152.095,31.02 152.524,30.911 152.922,30.694C153.321,30.476 153.713,30.09 154.099,29.535L154.099,22.11C153.809,22.593 153.405,22.997 152.886,23.323C152.367,23.649 151.836,23.999 151.292,24.374C150.749,24.748 150.296,25.225 149.934,25.804C149.572,26.384 149.391,27.156 149.391,28.122C149.391,29.16 149.608,29.903 150.043,30.35C150.477,30.796 151.009,31.02 151.636,31.02Z" style="fill:rgb(115,87,76);fill-rule:nonzero;"/>
            <path d="M183.508,13.852C185.392,13.852 186.955,14.619 188.199,16.152C189.442,17.685 190.064,20.046 190.064,23.233C190.064,25.744 189.684,27.76 188.923,29.281C188.162,30.802 187.154,31.901 185.899,32.577C184.643,33.253 183.267,33.591 181.77,33.591C180.78,33.591 179.862,33.422 179.017,33.084C178.172,32.746 177.448,32.191 176.844,31.418L177.351,31.237C177.786,31.768 178.299,32.167 178.891,32.432C179.482,32.698 180.068,32.831 180.647,32.831C181.975,32.831 182.965,32.082 183.617,30.585C184.269,29.088 184.595,26.806 184.595,23.74C184.595,21.663 184.468,20.015 184.215,18.796C183.961,17.577 183.593,16.707 183.11,16.188C182.627,15.669 182.048,15.41 181.371,15.41C180.526,15.41 179.754,15.754 179.054,16.442C178.353,17.13 177.955,18.09 177.858,19.321L177.677,18.054C178.112,16.677 178.848,15.633 179.887,14.921C180.925,14.208 182.132,13.852 183.508,13.852ZM177.967,4.761L177.967,32.36C177.363,32.263 176.748,32.263 176.12,32.36C175.492,32.456 174.913,32.619 174.381,32.849C173.85,33.078 173.403,33.35 173.041,33.664L172.498,33.338C172.595,33 172.661,32.662 172.697,32.323C172.733,31.985 172.752,31.647 172.752,31.309L172.752,9.108C172.752,8.021 172.589,7.218 172.263,6.699C171.937,6.18 171.327,5.92 170.434,5.92L170.434,5.16C171.206,5.232 171.955,5.269 172.679,5.269C173.669,5.269 174.611,5.226 175.504,5.142C176.398,5.057 177.218,4.93 177.967,4.761Z" style="fill:rgb(115,87,76);fill-rule:nonzero;"/>
            <path d="M197.09,33.338C195.472,33.338 194.301,32.915 193.577,32.07C192.853,31.225 192.49,30.199 192.49,28.991C192.49,27.953 192.726,27.108 193.197,26.456C193.668,25.804 194.277,25.267 195.026,24.844C195.774,24.422 196.565,24.072 197.398,23.794C198.231,23.516 199.028,23.239 199.788,22.961C200.549,22.683 201.165,22.363 201.636,22.001C202.106,21.639 202.342,21.18 202.342,20.625L202.342,17.8C202.342,17.172 202.239,16.611 202.034,16.116C201.829,15.621 201.515,15.241 201.092,14.975C200.67,14.709 200.12,14.577 199.444,14.577C198.961,14.577 198.479,14.643 197.996,14.776C197.513,14.909 197.114,15.132 196.8,15.446C197.476,15.687 198.002,16.055 198.376,16.55C198.75,17.045 198.937,17.607 198.937,18.235C198.937,19.056 198.654,19.707 198.086,20.19C197.519,20.673 196.849,20.915 196.076,20.915C195.207,20.915 194.549,20.643 194.102,20.1C193.655,19.557 193.432,18.899 193.432,18.126C193.432,17.426 193.607,16.846 193.957,16.387C194.307,15.929 194.796,15.494 195.424,15.084C196.1,14.697 196.915,14.395 197.869,14.178C198.823,13.961 199.855,13.852 200.966,13.852C202.076,13.852 203.078,13.967 203.972,14.196C204.865,14.426 205.614,14.842 206.217,15.446C206.772,16.001 207.135,16.683 207.304,17.492C207.473,18.301 207.557,19.321 207.557,20.553L207.557,30.404C207.557,30.983 207.618,31.394 207.738,31.635C207.859,31.877 208.064,31.998 208.354,31.998C208.595,31.998 208.825,31.937 209.042,31.816C209.259,31.696 209.465,31.551 209.658,31.382L210.02,31.998C209.513,32.432 208.927,32.764 208.263,32.994C207.599,33.223 206.857,33.338 206.036,33.338C204.587,33.338 203.628,33.042 203.157,32.45C202.686,31.859 202.438,31.177 202.414,30.404C201.811,31.394 201.068,32.13 200.187,32.613C199.306,33.096 198.273,33.338 197.09,33.338ZM199.879,31.02C200.338,31.02 200.766,30.911 201.165,30.694C201.563,30.476 201.955,30.09 202.342,29.535L202.342,22.11C202.052,22.593 201.648,22.997 201.128,23.323C200.609,23.649 200.078,23.999 199.535,24.374C198.992,24.748 198.539,25.225 198.177,25.804C197.815,26.384 197.633,27.156 197.633,28.122C197.633,29.16 197.851,29.903 198.285,30.35C198.72,30.796 199.251,31.02 199.879,31.02Z" style="fill:rgb(115,87,76);fill-rule:nonzero;"/>
            <path d="M224.544,13.852C225.558,13.852 226.385,13.979 227.024,14.233C227.664,14.486 228.165,14.83 228.528,15.265C228.914,15.723 229.198,16.315 229.379,17.039C229.56,17.764 229.65,18.742 229.65,19.973L229.65,29.716C229.65,30.73 229.825,31.418 230.175,31.78C230.526,32.142 231.123,32.323 231.968,32.323L231.968,33.084C231.509,33.06 230.821,33.03 229.904,32.994C228.986,32.957 228.081,32.939 227.187,32.939C226.27,32.939 225.371,32.957 224.489,32.994C223.608,33.03 222.938,33.06 222.479,33.084L222.479,32.323C223.203,32.323 223.711,32.142 224,31.78C224.29,31.418 224.435,30.73 224.435,29.716L224.435,18.452C224.435,17.848 224.375,17.323 224.254,16.876C224.133,16.43 223.916,16.08 223.602,15.826C223.288,15.573 222.817,15.446 222.189,15.446C221.175,15.446 220.324,15.844 219.636,16.641C218.948,17.438 218.604,18.44 218.604,19.647L218.604,29.716C218.604,30.73 218.755,31.418 219.056,31.78C219.358,32.142 219.859,32.323 220.56,32.323L220.56,33.084C220.125,33.06 219.491,33.03 218.658,32.994C217.825,32.957 216.962,32.939 216.068,32.939C215.151,32.939 214.209,32.957 213.243,32.994C212.278,33.03 211.553,33.06 211.07,33.084L211.07,32.323C211.915,32.323 212.513,32.142 212.863,31.78C213.213,31.418 213.388,30.73 213.388,29.716L213.388,18.307C213.388,17.221 213.225,16.418 212.899,15.899C212.573,15.379 211.964,15.12 211.07,15.12L211.07,14.359C211.843,14.432 212.592,14.468 213.316,14.468C214.33,14.468 215.278,14.426 216.159,14.341C217.04,14.257 217.855,14.13 218.604,13.961L218.604,17.221C219.207,15.989 220.028,15.12 221.067,14.613C222.105,14.106 223.264,13.852 224.544,13.852Z" style="fill:rgb(115,87,76);fill-rule:nonzero;"/>
            <path d="M250.621,14.359L250.621,15.084C250.162,15.204 249.727,15.488 249.317,15.935C248.906,16.381 248.508,17.136 248.122,18.198L243.015,32.541L241.675,35.076L233.779,17.148C233.369,16.206 232.964,15.633 232.566,15.428C232.167,15.222 231.823,15.12 231.534,15.12L231.534,14.359C232.33,14.432 233.157,14.486 234.015,14.522C234.872,14.558 235.699,14.577 236.496,14.577C237.485,14.577 238.391,14.552 239.212,14.504C240.033,14.456 240.805,14.408 241.53,14.359L241.53,15.12C241.047,15.12 240.594,15.15 240.172,15.21C239.749,15.271 239.459,15.44 239.302,15.717C239.145,15.995 239.212,16.472 239.502,17.148L244.065,28.158L243.739,28.376L246.419,20.879C247.095,18.923 247.204,17.492 246.745,16.587C246.287,15.681 245.478,15.18 244.319,15.084L244.319,14.359C244.874,14.383 245.478,14.408 246.13,14.432C246.781,14.456 247.349,14.468 247.832,14.468C248.315,14.468 248.822,14.456 249.353,14.432C249.884,14.408 250.307,14.383 250.621,14.359ZM243.015,32.541L241.639,36.416C241.18,37.648 240.649,38.505 240.045,38.988C239.707,39.277 239.272,39.501 238.741,39.658C238.21,39.815 237.594,39.893 236.894,39.893C236.314,39.893 235.717,39.797 235.101,39.603C234.485,39.41 233.972,39.096 233.562,38.662C233.151,38.227 232.946,37.672 232.946,36.996C232.946,36.247 233.212,35.65 233.743,35.203C234.274,34.756 234.974,34.533 235.844,34.533C236.64,34.533 237.292,34.726 237.799,35.112C238.306,35.499 238.56,36.066 238.56,36.815C238.56,37.297 238.409,37.756 238.107,38.191C237.805,38.625 237.353,38.951 236.749,39.169C236.87,39.193 237.015,39.205 237.184,39.205C237.353,39.205 237.485,39.205 237.582,39.205C238.306,39.205 238.946,38.976 239.502,38.517C240.057,38.058 240.516,37.334 240.878,36.344L242.146,32.613L243.015,32.541Z" style="fill:rgb(115,87,76);fill-rule:nonzero;"/>
            <path d="M256.09,33.338C254.472,33.338 253.301,32.915 252.576,32.07C251.852,31.225 251.49,30.199 251.49,28.991C251.49,27.953 251.725,27.108 252.196,26.456C252.667,25.804 253.277,25.267 254.025,24.844C254.774,24.422 255.564,24.072 256.397,23.794C257.23,23.516 258.027,23.239 258.788,22.961C259.548,22.683 260.164,22.363 260.635,22.001C261.106,21.639 261.341,21.18 261.341,20.625L261.341,17.8C261.341,17.172 261.239,16.611 261.033,16.116C260.828,15.621 260.514,15.241 260.092,14.975C259.669,14.709 259.12,14.577 258.444,14.577C257.961,14.577 257.478,14.643 256.995,14.776C256.512,14.909 256.114,15.132 255.8,15.446C256.476,15.687 257.001,16.055 257.375,16.55C257.75,17.045 257.937,17.607 257.937,18.235C257.937,19.056 257.653,19.707 257.086,20.19C256.518,20.673 255.848,20.915 255.075,20.915C254.206,20.915 253.548,20.643 253.102,20.1C252.655,19.557 252.432,18.899 252.432,18.126C252.432,17.426 252.607,16.846 252.957,16.387C253.307,15.929 253.796,15.494 254.424,15.084C255.1,14.697 255.915,14.395 256.868,14.178C257.822,13.961 258.854,13.852 259.965,13.852C261.076,13.852 262.078,13.967 262.971,14.196C263.864,14.426 264.613,14.842 265.217,15.446C265.772,16.001 266.134,16.683 266.303,17.492C266.472,18.301 266.557,19.321 266.557,20.553L266.557,30.404C266.557,30.983 266.617,31.394 266.738,31.635C266.858,31.877 267.064,31.998 267.353,31.998C267.595,31.998 267.824,31.937 268.042,31.816C268.259,31.696 268.464,31.551 268.657,31.382L269.019,31.998C268.512,32.432 267.927,32.764 267.263,32.994C266.599,33.223 265.856,33.338 265.035,33.338C263.587,33.338 262.627,33.042 262.156,32.45C261.685,31.859 261.438,31.177 261.414,30.404C260.81,31.394 260.068,32.13 259.186,32.613C258.305,33.096 257.273,33.338 256.09,33.338ZM258.878,31.02C259.337,31.02 259.766,30.911 260.164,30.694C260.563,30.476 260.955,30.09 261.341,29.535L261.341,22.11C261.051,22.593 260.647,22.997 260.128,23.323C259.609,23.649 259.078,23.999 258.534,24.374C257.991,24.748 257.538,25.225 257.176,25.804C256.814,26.384 256.633,27.156 256.633,28.122C256.633,29.16 256.85,29.903 257.285,30.35C257.719,30.796 258.251,31.02 258.878,31.02Z" style="fill:rgb(115,87,76);fill-rule:nonzero;"/>
            <path d="M277.422,4.725L277.422,29.716C277.422,30.73 277.585,31.418 277.911,31.78C278.237,32.142 278.798,32.323 279.595,32.323L279.595,33.084C279.136,33.06 278.466,33.03 277.585,32.994C276.704,32.957 275.804,32.939 274.887,32.939C273.945,32.939 272.997,32.957 272.044,32.994C271.09,33.03 270.372,33.06 269.889,33.084L269.889,32.323C270.734,32.323 271.331,32.142 271.681,31.78C272.032,31.418 272.207,30.73 272.207,29.716L272.207,9.071C272.207,7.985 272.044,7.182 271.718,6.663C271.392,6.144 270.782,5.884 269.889,5.884L269.889,5.124C270.661,5.196 271.41,5.232 272.134,5.232C273.124,5.232 274.066,5.19 274.959,5.106C275.853,5.021 276.674,4.894 277.422,4.725ZM289.229,14.359L289.229,15.084C288.481,15.229 287.732,15.542 286.984,16.025C286.235,16.508 285.475,17.124 284.702,17.872L281.913,20.77L282.275,20.082L288.469,30.44C288.734,30.875 289.012,31.261 289.302,31.599C289.591,31.937 289.941,32.179 290.352,32.323L290.352,33.084C289.99,33.06 289.446,33.03 288.722,32.994C287.998,32.957 287.273,32.939 286.549,32.939C285.656,32.939 284.762,32.957 283.869,32.994C282.976,33.03 282.312,33.06 281.877,33.084L281.877,32.323C282.36,32.323 282.686,32.209 282.855,31.979C283.024,31.75 283,31.454 282.782,31.092L279.197,24.609C278.907,24.15 278.623,23.854 278.346,23.722C278.068,23.589 277.7,23.51 277.241,23.486L277.241,22.798C277.748,22.75 278.189,22.665 278.563,22.545C278.937,22.424 279.281,22.194 279.595,21.856L282.348,19.176C283.169,18.404 283.579,17.715 283.579,17.112C283.579,16.508 283.32,16.025 282.8,15.663C282.281,15.301 281.599,15.108 280.754,15.084L280.754,14.359C281.43,14.383 282.167,14.408 282.963,14.432C283.76,14.456 284.436,14.468 284.992,14.468C285.475,14.468 285.988,14.462 286.531,14.45C287.074,14.438 287.587,14.426 288.07,14.414C288.553,14.402 288.939,14.383 289.229,14.359Z" style="fill:rgb(115,87,76);fill-rule:nonzero;"/>
            <path d="M304.296,33.338C302.678,33.338 301.507,32.915 300.783,32.07C300.058,31.225 299.696,30.199 299.696,28.991C299.696,27.953 299.932,27.108 300.402,26.456C300.873,25.804 301.483,25.267 302.232,24.844C302.98,24.422 303.771,24.072 304.604,23.794C305.437,23.516 306.234,23.239 306.994,22.961C307.755,22.683 308.37,22.363 308.841,22.001C309.312,21.639 309.548,21.18 309.548,20.625L309.548,17.8C309.548,17.172 309.445,16.611 309.24,16.116C309.034,15.621 308.721,15.241 308.298,14.975C307.875,14.709 307.326,14.577 306.65,14.577C306.167,14.577 305.684,14.643 305.201,14.776C304.718,14.909 304.32,15.132 304.006,15.446C304.682,15.687 305.207,16.055 305.582,16.55C305.956,17.045 306.143,17.607 306.143,18.235C306.143,19.056 305.859,19.707 305.292,20.19C304.725,20.673 304.054,20.915 303.282,20.915C302.413,20.915 301.755,20.643 301.308,20.1C300.861,19.557 300.638,18.899 300.638,18.126C300.638,17.426 300.813,16.846 301.163,16.387C301.513,15.929 302.002,15.494 302.63,15.084C303.306,14.697 304.121,14.395 305.075,14.178C306.028,13.961 307.061,13.852 308.171,13.852C309.282,13.852 310.284,13.967 311.177,14.196C312.071,14.426 312.819,14.842 313.423,15.446C313.978,16.001 314.34,16.683 314.509,17.492C314.678,18.301 314.763,19.321 314.763,20.553L314.763,30.404C314.763,30.983 314.823,31.394 314.944,31.635C315.065,31.877 315.27,31.998 315.56,31.998C315.801,31.998 316.031,31.937 316.248,31.816C316.465,31.696 316.67,31.551 316.864,31.382L317.226,31.998C316.719,32.432 316.133,32.764 315.469,32.994C314.805,33.223 314.063,33.338 313.242,33.338C311.793,33.338 310.833,33.042 310.362,32.45C309.892,31.859 309.644,31.177 309.62,30.404C309.016,31.394 308.274,32.13 307.393,32.613C306.511,33.096 305.479,33.338 304.296,33.338ZM307.085,31.02C307.543,31.02 307.972,30.911 308.37,30.694C308.769,30.476 309.161,30.09 309.548,29.535L309.548,22.11C309.258,22.593 308.853,22.997 308.334,23.323C307.815,23.649 307.284,23.999 306.741,24.374C306.197,24.748 305.745,25.225 305.382,25.804C305.02,26.384 304.839,27.156 304.839,28.122C304.839,29.16 305.057,29.903 305.491,30.35C305.926,30.796 306.457,31.02 307.085,31.02Z" style="fill:rgb(115,87,76);fill-rule:nonzero;"/>
            <path d="M325.665,4.725L325.665,29.716C325.665,30.73 325.84,31.418 326.19,31.78C326.54,32.142 327.138,32.323 327.983,32.323L327.983,33.084C327.524,33.06 326.836,33.03 325.918,32.994C325.001,32.957 324.071,32.939 323.129,32.939C322.188,32.939 321.24,32.957 320.286,32.994C319.333,33.03 318.614,33.06 318.131,33.084L318.131,32.323C318.976,32.323 319.574,32.142 319.924,31.78C320.274,31.418 320.449,30.73 320.449,29.716L320.449,9.071C320.449,7.985 320.286,7.182 319.96,6.663C319.634,6.144 319.025,5.884 318.131,5.884L318.131,5.124C318.904,5.196 319.652,5.232 320.377,5.232C321.367,5.232 322.308,5.19 323.202,5.106C324.095,5.021 324.916,4.894 325.665,4.725Z" style="fill:rgb(115,87,76);fill-rule:nonzero;"/>
            <path d="M334.321,33.338C332.703,33.338 331.532,32.915 330.808,32.07C330.083,31.225 329.721,30.199 329.721,28.991C329.721,27.953 329.957,27.108 330.427,26.456C330.898,25.804 331.508,25.267 332.256,24.844C333.005,24.422 333.796,24.072 334.629,23.794C335.462,23.516 336.258,23.239 337.019,22.961C337.78,22.683 338.395,22.363 338.866,22.001C339.337,21.639 339.572,21.18 339.572,20.625L339.572,17.8C339.572,17.172 339.47,16.611 339.265,16.116C339.059,15.621 338.745,15.241 338.323,14.975C337.9,14.709 337.351,14.577 336.675,14.577C336.192,14.577 335.709,14.643 335.226,14.776C334.743,14.909 334.345,15.132 334.031,15.446C334.707,15.687 335.232,16.055 335.607,16.55C335.981,17.045 336.168,17.607 336.168,18.235C336.168,19.056 335.884,19.707 335.317,20.19C334.749,20.673 334.079,20.915 333.307,20.915C332.437,20.915 331.779,20.643 331.333,20.1C330.886,19.557 330.663,18.899 330.663,18.126C330.663,17.426 330.838,16.846 331.188,16.387C331.538,15.929 332.027,15.494 332.655,15.084C333.331,14.697 334.146,14.395 335.099,14.178C336.053,13.961 337.085,13.852 338.196,13.852C339.307,13.852 340.309,13.967 341.202,14.196C342.096,14.426 342.844,14.842 343.448,15.446C344.003,16.001 344.365,16.683 344.534,17.492C344.703,18.301 344.788,19.321 344.788,20.553L344.788,30.404C344.788,30.983 344.848,31.394 344.969,31.635C345.09,31.877 345.295,31.998 345.585,31.998C345.826,31.998 346.055,31.937 346.273,31.816C346.49,31.696 346.695,31.551 346.888,31.382L347.251,31.998C346.744,32.432 346.158,32.764 345.494,32.994C344.83,33.223 344.088,33.338 343.267,33.338C341.818,33.338 340.858,33.042 340.387,32.45C339.917,31.859 339.669,31.177 339.645,30.404C339.041,31.394 338.299,32.13 337.417,32.613C336.536,33.096 335.504,33.338 334.321,33.338ZM337.11,31.02C337.568,31.02 337.997,30.911 338.395,30.694C338.794,30.476 339.186,30.09 339.572,29.535L339.572,22.11C339.283,22.593 338.878,22.997 338.359,23.323C337.84,23.649 337.309,23.999 336.766,24.374C336.222,24.748 335.77,25.225 335.407,25.804C335.045,26.384 334.864,27.156 334.864,28.122C334.864,29.16 335.081,29.903 335.516,30.35C335.951,30.796 336.482,31.02 337.11,31.02Z" style="fill:rgb(115,87,76);fill-rule:nonzero;"/>
            <path d="M355.472,13.852C356.486,13.852 357.374,13.979 358.134,14.233C358.895,14.486 359.444,14.734 359.782,14.975C360.603,15.53 361.11,15.168 361.303,13.888L362.064,13.888C362.016,14.565 361.979,15.391 361.955,16.369C361.931,17.347 361.919,18.645 361.919,20.263L361.158,20.263C361.038,19.369 360.808,18.488 360.47,17.619C360.132,16.75 359.643,16.037 359.003,15.482C358.364,14.927 357.537,14.649 356.523,14.649C355.822,14.649 355.231,14.848 354.748,15.247C354.265,15.645 354.023,16.218 354.023,16.967C354.023,17.691 354.241,18.325 354.675,18.868C355.11,19.412 355.671,19.931 356.36,20.426C357.048,20.921 357.766,21.446 358.515,22.001C359.722,22.895 360.742,23.794 361.575,24.7C362.408,25.605 362.824,26.782 362.824,28.231C362.824,29.317 362.511,30.265 361.883,31.074C361.255,31.883 360.428,32.505 359.402,32.939C358.376,33.374 357.235,33.591 355.979,33.591C355.255,33.591 354.609,33.519 354.042,33.374C353.474,33.229 352.985,33.048 352.575,32.831C352.261,32.686 351.965,32.547 351.687,32.414C351.41,32.281 351.15,32.167 350.909,32.07C350.667,31.998 350.456,32.082 350.275,32.323C350.094,32.565 349.955,32.903 349.858,33.338L349.098,33.338C349.146,32.565 349.182,31.623 349.206,30.513C349.231,29.402 349.243,27.929 349.243,26.094L350.003,26.094C350.148,27.398 350.414,28.551 350.8,29.553C351.186,30.555 351.712,31.34 352.376,31.907C353.04,32.474 353.879,32.758 354.893,32.758C355.52,32.758 356.1,32.559 356.631,32.161C357.162,31.762 357.428,31.104 357.428,30.187C357.428,29.124 357.084,28.243 356.396,27.543C355.708,26.842 354.832,26.082 353.77,25.261C352.997,24.633 352.267,24.011 351.579,23.396C350.891,22.78 350.329,22.104 349.895,21.367C349.46,20.631 349.243,19.792 349.243,18.85C349.243,17.764 349.532,16.846 350.112,16.098C350.691,15.349 351.458,14.788 352.412,14.414C353.366,14.039 354.386,13.852 355.472,13.852Z" style="fill:rgb(115,87,76);fill-rule:nonzero;"/>
            <path d="M369.815,33.338C368.197,33.338 367.026,32.915 366.301,32.07C365.577,31.225 365.215,30.199 365.215,28.991C365.215,27.953 365.45,27.108 365.921,26.456C366.392,25.804 367.002,25.267 367.75,24.844C368.499,24.422 369.289,24.072 370.122,23.794C370.955,23.516 371.752,23.239 372.513,22.961C373.273,22.683 373.889,22.363 374.36,22.001C374.831,21.639 375.066,21.18 375.066,20.625L375.066,17.8C375.066,17.172 374.964,16.611 374.758,16.116C374.553,15.621 374.239,15.241 373.817,14.975C373.394,14.709 372.845,14.577 372.169,14.577C371.686,14.577 371.203,14.643 370.72,14.776C370.237,14.909 369.839,15.132 369.525,15.446C370.201,15.687 370.726,16.055 371.1,16.55C371.475,17.045 371.662,17.607 371.662,18.235C371.662,19.056 371.378,19.707 370.811,20.19C370.243,20.673 369.573,20.915 368.8,20.915C367.931,20.915 367.273,20.643 366.827,20.1C366.38,19.557 366.157,18.899 366.157,18.126C366.157,17.426 366.332,16.846 366.682,16.387C367.032,15.929 367.521,15.494 368.149,15.084C368.825,14.697 369.64,14.395 370.593,14.178C371.547,13.961 372.579,13.852 373.69,13.852C374.801,13.852 375.803,13.967 376.696,14.196C377.589,14.426 378.338,14.842 378.942,15.446C379.497,16.001 379.859,16.683 380.028,17.492C380.197,18.301 380.282,19.321 380.282,20.553L380.282,30.404C380.282,30.983 380.342,31.394 380.463,31.635C380.583,31.877 380.789,31.998 381.078,31.998C381.32,31.998 381.549,31.937 381.767,31.816C381.984,31.696 382.189,31.551 382.382,31.382L382.744,31.998C382.237,32.432 381.652,32.764 380.988,32.994C380.324,33.223 379.581,33.338 378.76,33.338C377.312,33.338 376.352,33.042 375.881,32.45C375.41,31.859 375.163,31.177 375.139,30.404C374.535,31.394 373.793,32.13 372.911,32.613C372.03,33.096 370.998,33.338 369.815,33.338ZM372.603,31.02C373.062,31.02 373.491,30.911 373.889,30.694C374.288,30.476 374.68,30.09 375.066,29.535L375.066,22.11C374.776,22.593 374.372,22.997 373.853,23.323C373.334,23.649 372.803,23.999 372.259,24.374C371.716,24.748 371.263,25.225 370.901,25.804C370.539,26.384 370.358,27.156 370.358,28.122C370.358,29.16 370.575,29.903 371.01,30.35C371.444,30.796 371.976,31.02 372.603,31.02Z" style="fill:rgb(115,87,76);fill-rule:nonzero;"/>
            <path d="M397.268,13.852C398.282,13.852 399.109,13.979 399.749,14.233C400.389,14.486 400.89,14.83 401.252,15.265C401.638,15.723 401.922,16.315 402.103,17.039C402.284,17.764 402.375,18.742 402.375,19.973L402.375,29.716C402.375,30.73 402.55,31.418 402.9,31.78C403.25,32.142 403.848,32.323 404.693,32.323L404.693,33.084C404.234,33.06 403.546,33.03 402.628,32.994C401.711,32.957 400.805,32.939 399.912,32.939C398.994,32.939 398.095,32.957 397.214,32.994C396.332,33.03 395.662,33.06 395.204,33.084L395.204,32.323C395.928,32.323 396.435,32.142 396.725,31.78C397.014,31.418 397.159,30.73 397.159,29.716L397.159,18.452C397.159,17.848 397.099,17.323 396.978,16.876C396.857,16.43 396.64,16.08 396.326,15.826C396.012,15.573 395.542,15.446 394.914,15.446C393.9,15.446 393.049,15.844 392.36,16.641C391.672,17.438 391.328,18.44 391.328,19.647L391.328,29.716C391.328,30.73 391.479,31.418 391.781,31.78C392.083,32.142 392.584,32.323 393.284,32.323L393.284,33.084C392.849,33.06 392.216,33.03 391.383,32.994C390.549,32.957 389.686,32.939 388.793,32.939C387.875,32.939 386.934,32.957 385.968,32.994C385.002,33.03 384.278,33.06 383.795,33.084L383.795,32.323C384.64,32.323 385.238,32.142 385.588,31.78C385.938,31.418 386.113,30.73 386.113,29.716L386.113,18.307C386.113,17.221 385.95,16.418 385.624,15.899C385.298,15.379 384.688,15.12 383.795,15.12L383.795,14.359C384.567,14.432 385.316,14.468 386.04,14.468C387.054,14.468 388.002,14.426 388.883,14.341C389.765,14.257 390.58,14.13 391.328,13.961L391.328,17.221C391.932,15.989 392.753,15.12 393.791,14.613C394.829,14.106 395.988,13.852 397.268,13.852Z" style="fill:rgb(115,87,76);fill-rule:nonzero;"/>
            <path d="M432.508,13.961L432.508,29.136C432.508,30.223 432.677,31.026 433.015,31.545C433.353,32.064 433.957,32.323 434.826,32.323L434.826,33.084C434.078,33.012 433.329,32.975 432.581,32.975C431.567,32.975 430.625,33.012 429.756,33.084C428.886,33.157 428.065,33.289 427.293,33.482L427.293,30.223C426.713,31.43 425.911,32.293 424.884,32.812C423.858,33.332 422.717,33.591 421.462,33.591C420.448,33.591 419.627,33.458 418.999,33.193C418.371,32.927 417.876,32.589 417.514,32.179C417.103,31.72 416.814,31.116 416.645,30.368C416.476,29.619 416.391,28.653 416.391,27.47L416.391,18.307C416.391,17.221 416.228,16.418 415.902,15.899C415.576,15.379 414.967,15.12 414.073,15.12L414.073,14.359C414.846,14.432 415.594,14.468 416.319,14.468C417.333,14.468 418.281,14.426 419.162,14.341C420.043,14.257 420.858,14.13 421.607,13.961L421.607,28.955C421.607,29.559 421.661,30.09 421.77,30.549C421.878,31.008 422.089,31.364 422.403,31.617C422.717,31.871 423.176,31.998 423.78,31.998C424.745,31.998 425.572,31.593 426.261,30.784C426.949,29.975 427.293,28.979 427.293,27.796L427.293,18.307C427.293,17.221 427.13,16.418 426.804,15.899C426.478,15.379 425.868,15.12 424.975,15.12L424.975,14.359C425.748,14.432 426.496,14.468 427.22,14.468C428.235,14.468 429.182,14.426 430.064,14.341C430.945,14.257 431.76,14.13 432.508,13.961Z" style="fill:rgb(115,87,76);fill-rule:nonzero;"/>
            <path d="M449.893,13.852C450.907,13.852 451.734,13.979 452.374,14.233C453.014,14.486 453.515,14.83 453.877,15.265C454.263,15.723 454.547,16.315 454.728,17.039C454.909,17.764 455,18.742 455,19.973L455,29.716C455,30.73 455.175,31.418 455.525,31.78C455.875,32.142 456.473,32.323 457.318,32.323L457.318,33.084C456.859,33.06 456.171,33.03 455.253,32.994C454.336,32.957 453.43,32.939 452.537,32.939C451.619,32.939 450.72,32.957 449.839,32.994C448.957,33.03 448.287,33.06 447.829,33.084L447.829,32.323C448.553,32.323 449.06,32.142 449.35,31.78C449.639,31.418 449.784,30.73 449.784,29.716L449.784,18.452C449.784,17.848 449.724,17.323 449.603,16.876C449.482,16.43 449.265,16.08 448.951,15.826C448.637,15.573 448.167,15.446 447.539,15.446C446.525,15.446 445.674,15.844 444.985,16.641C444.297,17.438 443.953,18.44 443.953,19.647L443.953,29.716C443.953,30.73 444.104,31.418 444.406,31.78C444.708,32.142 445.209,32.323 445.909,32.323L445.909,33.084C445.474,33.06 444.841,33.03 444.008,32.994C443.174,32.957 442.311,32.939 441.418,32.939C440.5,32.939 439.559,32.957 438.593,32.994C437.627,33.03 436.903,33.06 436.42,33.084L436.42,32.323C437.265,32.323 437.862,32.142 438.213,31.78C438.563,31.418 438.738,30.73 438.738,29.716L438.738,18.307C438.738,17.221 438.575,16.418 438.249,15.899C437.923,15.379 437.313,15.12 436.42,15.12L436.42,14.359C437.192,14.432 437.941,14.468 438.665,14.468C439.679,14.468 440.627,14.426 441.508,14.341C442.39,14.257 443.205,14.13 443.953,13.961L443.953,17.221C444.557,15.989 445.378,15.12 446.416,14.613C447.454,14.106 448.613,13.852 449.893,13.852Z" style="fill:rgb(115,87,76);fill-rule:nonzero;"/>
            <path d="M466.01,8.42L466.01,14.359L470.284,14.359L470.284,15.084L466.01,15.084L466.01,29.716C466.01,30.44 466.143,30.953 466.408,31.255C466.674,31.557 467.072,31.708 467.604,31.708C468.038,31.708 468.473,31.545 468.908,31.219C469.342,30.893 469.728,30.331 470.066,29.535L470.682,29.861C470.296,30.947 469.71,31.841 468.926,32.541C468.141,33.241 467.072,33.591 465.72,33.591C464.924,33.591 464.223,33.489 463.62,33.283C463.016,33.078 462.509,32.77 462.098,32.36C461.567,31.829 461.217,31.171 461.048,30.386C460.879,29.601 460.795,28.581 460.795,27.325L460.795,15.084L457.752,15.084L457.752,14.359L460.795,14.359L460.795,9.578C461.809,9.578 462.744,9.488 463.602,9.307C464.459,9.126 465.262,8.83 466.01,8.42Z" style="fill:rgb(115,87,76);fill-rule:nonzero;"/>
            <path d="M489.443,13.961L489.443,29.136C489.443,30.223 489.612,31.026 489.95,31.545C490.288,32.064 490.892,32.323 491.761,32.323L491.761,33.084C491.013,33.012 490.264,32.975 489.516,32.975C488.502,32.975 487.56,33.012 486.691,33.084C485.821,33.157 485,33.289 484.228,33.482L484.228,30.223C483.648,31.43 482.845,32.293 481.819,32.812C480.793,33.332 479.652,33.591 478.397,33.591C477.383,33.591 476.562,33.458 475.934,33.193C475.306,32.927 474.811,32.589 474.449,32.179C474.038,31.72 473.749,31.116 473.58,30.368C473.411,29.619 473.326,28.653 473.326,27.47L473.326,18.307C473.326,17.221 473.163,16.418 472.837,15.899C472.511,15.379 471.902,15.12 471.008,15.12L471.008,14.359C471.781,14.432 472.529,14.468 473.254,14.468C474.268,14.468 475.215,14.426 476.097,14.341C476.978,14.257 477.793,14.13 478.542,13.961L478.542,28.955C478.542,29.559 478.596,30.09 478.705,30.549C478.813,31.008 479.024,31.364 479.338,31.617C479.652,31.871 480.111,31.998 480.715,31.998C481.68,31.998 482.507,31.593 483.196,30.784C483.884,29.975 484.228,28.979 484.228,27.796L484.228,18.307C484.228,17.221 484.065,16.418 483.739,15.899C483.413,15.379 482.803,15.12 481.91,15.12L481.91,14.359C482.682,14.432 483.431,14.468 484.155,14.468C485.169,14.468 486.117,14.426 486.998,14.341C487.88,14.257 488.695,14.13 489.443,13.961Z" style="fill:rgb(115,87,76);fill-rule:nonzero;"/>
            <path d="M500.707,4.725L500.707,29.716C500.707,30.73 500.87,31.418 501.196,31.78C501.522,32.142 502.083,32.323 502.88,32.323L502.88,33.084C502.421,33.06 501.751,33.03 500.87,32.994C499.989,32.957 499.089,32.939 498.172,32.939C497.23,32.939 496.282,32.957 495.329,32.994C494.375,33.03 493.657,33.06 493.174,33.084L493.174,32.323C494.019,32.323 494.616,32.142 494.966,31.78C495.317,31.418 495.492,30.73 495.492,29.716L495.492,9.071C495.492,7.985 495.329,7.182 495.003,6.663C494.677,6.144 494.067,5.884 493.174,5.884L493.174,5.124C493.946,5.196 494.695,5.232 495.419,5.232C496.409,5.232 497.351,5.19 498.244,5.106C499.138,5.021 499.959,4.894 500.707,4.725ZM512.514,14.359L512.514,15.084C511.766,15.229 511.017,15.542 510.269,16.025C509.52,16.508 508.76,17.124 507.987,17.872L505.198,20.77L505.56,20.082L511.754,30.44C512.019,30.875 512.297,31.261 512.587,31.599C512.876,31.937 513.226,32.179 513.637,32.323L513.637,33.084C513.275,33.06 512.731,33.03 512.007,32.994C511.283,32.957 510.558,32.939 509.834,32.939C508.941,32.939 508.047,32.957 507.154,32.994C506.261,33.03 505.597,33.06 505.162,33.084L505.162,32.323C505.645,32.323 505.971,32.209 506.14,31.979C506.309,31.75 506.285,31.454 506.067,31.092L502.482,24.609C502.192,24.15 501.908,23.854 501.631,23.722C501.353,23.589 500.985,23.51 500.526,23.486L500.526,22.798C501.033,22.75 501.474,22.665 501.848,22.545C502.222,22.424 502.566,22.194 502.88,21.856L505.633,19.176C506.454,18.404 506.864,17.715 506.864,17.112C506.864,16.508 506.605,16.025 506.085,15.663C505.566,15.301 504.884,15.108 504.039,15.084L504.039,14.359C504.715,14.383 505.452,14.408 506.248,14.432C507.045,14.456 507.721,14.468 508.277,14.468C508.76,14.468 509.273,14.462 509.816,14.45C510.359,14.438 510.872,14.426 511.355,14.414C511.838,14.402 512.224,14.383 512.514,14.359Z" style="fill:rgb(115,87,76);fill-rule:nonzero;"/>
            <path d="M523.162,7.442C523.766,7.466 524.581,7.49 525.607,7.514C526.633,7.538 527.653,7.55 528.667,7.55C529.826,7.55 530.949,7.538 532.036,7.514C533.122,7.49 533.895,7.478 534.354,7.478C537.348,7.478 539.587,8.009 541.072,9.071C542.557,10.134 543.3,11.498 543.3,13.164C543.3,14.009 543.046,14.866 542.539,15.736C542.032,16.605 541.247,17.377 540.185,18.054C539.122,18.73 537.746,19.225 536.056,19.538L536.056,19.611C538.326,19.78 540.124,20.19 541.452,20.842C542.78,21.494 543.734,22.279 544.314,23.197C544.893,24.114 545.183,25.068 545.183,26.058C545.183,28.327 544.296,30.066 542.521,31.273C540.746,32.48 538.302,33.084 535.187,33.084C534.607,33.084 533.768,33.066 532.67,33.03C531.571,32.994 530.261,32.975 528.74,32.975C527.678,32.975 526.633,32.981 525.607,32.994C524.581,33.006 523.766,33.036 523.162,33.084L523.162,32.36C523.935,32.311 524.514,32.215 524.901,32.07C525.287,31.925 525.547,31.635 525.679,31.201C525.812,30.766 525.879,30.114 525.879,29.245L525.879,11.281C525.879,10.387 525.812,9.729 525.679,9.307C525.547,8.884 525.281,8.595 524.883,8.438C524.484,8.281 523.911,8.19 523.162,8.166L523.162,7.442ZM533.883,8.166C532.941,8.166 532.332,8.371 532.054,8.782C531.776,9.192 531.637,10.025 531.637,11.281L531.637,29.245C531.637,30.501 531.794,31.315 532.108,31.69C532.422,32.064 533.098,32.251 534.136,32.251C535.875,32.251 537.149,31.702 537.957,30.603C538.766,29.505 539.171,27.941 539.171,25.913C539.171,24.054 538.706,22.617 537.776,21.603C536.847,20.589 535.307,20.082 533.159,20.082L530.08,20.082L530.08,19.466L533.195,19.466C534.33,19.466 535.199,19.194 535.802,18.651C536.406,18.108 536.829,17.383 537.07,16.478C537.312,15.573 537.432,14.601 537.432,13.562C537.432,11.776 537.155,10.43 536.599,9.524C536.044,8.619 535.138,8.166 533.883,8.166Z" style="fill:rgb(115,87,76);fill-rule:nonzero;"/>
            <path d="M556.483,13.852C558.608,13.852 560.274,14.48 561.481,15.736C562.688,16.991 563.292,19.043 563.292,21.893L551.376,21.893L551.304,21.205L558.729,21.205C558.753,20.021 558.68,18.929 558.511,17.927C558.342,16.925 558.077,16.122 557.714,15.518C557.352,14.915 556.869,14.613 556.266,14.613C555.421,14.613 554.702,15.144 554.111,16.206C553.519,17.269 553.163,19.031 553.042,21.494L553.151,21.712C553.127,22.001 553.109,22.303 553.097,22.617C553.085,22.931 553.079,23.257 553.079,23.595C553.079,25.261 553.314,26.613 553.785,27.651C554.256,28.69 554.853,29.444 555.578,29.915C556.302,30.386 557.038,30.621 557.787,30.621C558.511,30.621 559.302,30.44 560.159,30.078C561.016,29.716 561.819,28.931 562.568,27.724L563.22,27.941C562.93,28.859 562.471,29.752 561.843,30.621C561.216,31.49 560.419,32.203 559.453,32.758C558.487,33.313 557.328,33.591 555.976,33.591C554.334,33.591 552.885,33.241 551.63,32.541C550.374,31.841 549.39,30.778 548.678,29.354C547.966,27.929 547.61,26.118 547.61,23.921C547.61,21.675 547.99,19.804 548.75,18.307C549.511,16.81 550.561,15.693 551.901,14.957C553.242,14.22 554.769,13.852 556.483,13.852Z" style="fill:rgb(115,87,76);fill-rule:nonzero;"/>
            <path d="M577.634,13.852C578.407,13.852 579.035,14.015 579.518,14.341C580.001,14.667 580.357,15.084 580.586,15.591C580.816,16.098 580.93,16.629 580.93,17.184C580.93,18.078 580.671,18.808 580.152,19.375C579.632,19.943 578.95,20.227 578.105,20.227C577.26,20.227 576.602,20.015 576.131,19.593C575.661,19.17 575.425,18.609 575.425,17.909C575.425,17.233 575.576,16.671 575.878,16.225C576.18,15.778 576.56,15.398 577.019,15.084C576.681,14.987 576.343,14.999 576.005,15.12C575.377,15.216 574.815,15.512 574.32,16.007C573.825,16.502 573.433,17.088 573.143,17.764C572.854,18.44 572.709,19.104 572.709,19.756L572.709,29.354C572.709,30.513 572.992,31.297 573.56,31.708C574.127,32.118 574.978,32.323 576.113,32.323L576.113,33.084C575.558,33.06 574.749,33.03 573.687,32.994C572.624,32.957 571.514,32.939 570.355,32.939C569.389,32.939 568.411,32.957 567.421,32.994C566.431,33.03 565.682,33.06 565.175,33.084L565.175,32.323C566.02,32.323 566.618,32.142 566.968,31.78C567.318,31.418 567.493,30.73 567.493,29.716L567.493,18.307C567.493,17.221 567.33,16.418 567.004,15.899C566.678,15.379 566.069,15.12 565.175,15.12L565.175,14.359C565.948,14.432 566.697,14.468 567.421,14.468C568.435,14.468 569.383,14.426 570.264,14.341C571.145,14.257 571.96,14.13 572.709,13.961L572.709,17.329C572.999,16.677 573.385,16.086 573.868,15.554C574.351,15.023 574.906,14.607 575.534,14.305C576.162,14.003 576.862,13.852 577.634,13.852Z" style="fill:rgb(115,87,76);fill-rule:nonzero;"/>
            <path d="M593.788,13.852C595.671,13.852 597.235,14.619 598.478,16.152C599.721,17.685 600.343,20.046 600.343,23.233C600.343,25.744 599.963,27.76 599.202,29.281C598.442,30.802 597.434,31.901 596.178,32.577C594.923,33.253 593.546,33.591 592.049,33.591C591.059,33.591 590.142,33.422 589.297,33.084C588.452,32.746 587.727,32.191 587.124,31.418L587.631,31.237C588.065,31.768 588.578,32.167 589.17,32.432C589.761,32.698 590.347,32.831 590.927,32.831C592.255,32.831 593.244,32.082 593.896,30.585C594.548,29.088 594.874,26.806 594.874,23.74C594.874,21.663 594.748,20.015 594.494,18.796C594.24,17.577 593.872,16.707 593.389,16.188C592.906,15.669 592.327,15.41 591.651,15.41C590.806,15.41 590.033,15.754 589.333,16.442C588.633,17.13 588.234,18.09 588.138,19.321L587.957,18.054C588.391,16.677 589.128,15.633 590.166,14.921C591.204,14.208 592.411,13.852 593.788,13.852ZM588.246,4.761L588.246,32.36C587.643,32.263 587.027,32.263 586.399,32.36C585.771,32.456 585.192,32.619 584.661,32.849C584.13,33.078 583.683,33.35 583.321,33.664L582.777,33.338C582.874,33 582.94,32.662 582.977,32.323C583.013,31.985 583.031,31.647 583.031,31.309L583.031,9.108C583.031,8.021 582.868,7.218 582.542,6.699C582.216,6.18 581.606,5.92 580.713,5.92L580.713,5.16C581.486,5.232 582.234,5.269 582.959,5.269C583.948,5.269 584.89,5.226 585.784,5.142C586.677,5.057 587.498,4.93 588.246,4.761Z" style="fill:rgb(115,87,76);fill-rule:nonzero;"/>
            <path d="M607.37,33.338C605.752,33.338 604.581,32.915 603.856,32.07C603.132,31.225 602.77,30.199 602.77,28.991C602.77,27.953 603.005,27.108 603.476,26.456C603.947,25.804 604.557,25.267 605.305,24.844C606.054,24.422 606.844,24.072 607.677,23.794C608.51,23.516 609.307,23.239 610.068,22.961C610.828,22.683 611.444,22.363 611.915,22.001C612.386,21.639 612.621,21.18 612.621,20.625L612.621,17.8C612.621,17.172 612.519,16.611 612.313,16.116C612.108,15.621 611.794,15.241 611.372,14.975C610.949,14.709 610.4,14.577 609.724,14.577C609.241,14.577 608.758,14.643 608.275,14.776C607.792,14.909 607.394,15.132 607.08,15.446C607.756,15.687 608.281,16.055 608.655,16.55C609.03,17.045 609.217,17.607 609.217,18.235C609.217,19.056 608.933,19.707 608.366,20.19C607.798,20.673 607.128,20.915 606.355,20.915C605.486,20.915 604.828,20.643 604.382,20.1C603.935,19.557 603.712,18.899 603.712,18.126C603.712,17.426 603.887,16.846 604.237,16.387C604.587,15.929 605.076,15.494 605.704,15.084C606.38,14.697 607.194,14.395 608.148,14.178C609.102,13.961 610.134,13.852 611.245,13.852C612.356,13.852 613.358,13.967 614.251,14.196C615.144,14.426 615.893,14.842 616.497,15.446C617.052,16.001 617.414,16.683 617.583,17.492C617.752,18.301 617.837,19.321 617.837,20.553L617.837,30.404C617.837,30.983 617.897,31.394 618.018,31.635C618.138,31.877 618.344,31.998 618.633,31.998C618.875,31.998 619.104,31.937 619.322,31.816C619.539,31.696 619.744,31.551 619.937,31.382L620.299,31.998C619.792,32.432 619.207,32.764 618.543,32.994C617.879,33.223 617.136,33.338 616.315,33.338C614.867,33.338 613.907,33.042 613.436,32.45C612.965,31.859 612.718,31.177 612.694,30.404C612.09,31.394 611.348,32.13 610.466,32.613C609.585,33.096 608.553,33.338 607.37,33.338ZM610.158,31.02C610.617,31.02 611.046,30.911 611.444,30.694C611.842,30.476 612.235,30.09 612.621,29.535L612.621,22.11C612.331,22.593 611.927,22.997 611.408,23.323C610.889,23.649 610.358,23.999 609.814,24.374C609.271,24.748 608.818,25.225 608.456,25.804C608.094,26.384 607.913,27.156 607.913,28.122C607.913,29.16 608.13,29.903 608.565,30.35C608.999,30.796 609.531,31.02 610.158,31.02Z" style="fill:rgb(115,87,76);fill-rule:nonzero;"/>
            <path d="M628.702,4.761L628.702,17.221C629.306,15.965 630.121,15.09 631.147,14.595C632.173,14.1 633.326,13.852 634.606,13.852C635.644,13.852 636.477,13.979 637.105,14.233C637.732,14.486 638.227,14.83 638.59,15.265C639,15.723 639.296,16.315 639.477,17.039C639.658,17.764 639.749,18.742 639.749,19.973L639.749,29.716C639.749,30.73 639.924,31.418 640.274,31.78C640.624,32.142 641.221,32.323 642.067,32.323L642.067,33.084C641.608,33.06 640.914,33.03 639.984,32.994C639.054,32.957 638.155,32.939 637.286,32.939C636.344,32.939 635.433,32.957 634.551,32.994C633.67,33.03 633.012,33.06 632.577,33.084L632.577,32.323C633.302,32.323 633.809,32.142 634.099,31.78C634.388,31.418 634.533,30.73 634.533,29.716L634.533,18.452C634.533,17.848 634.473,17.323 634.352,16.876C634.231,16.43 634.008,16.08 633.682,15.826C633.356,15.573 632.891,15.446 632.288,15.446C631.298,15.446 630.453,15.832 629.752,16.605C629.052,17.377 628.702,18.379 628.702,19.611L628.702,29.716C628.702,30.73 628.847,31.418 629.137,31.78C629.426,32.142 629.933,32.323 630.658,32.323L630.658,33.084C630.223,33.06 629.583,33.03 628.738,32.994C627.893,32.957 627.036,32.939 626.167,32.939C625.225,32.939 624.277,32.957 623.324,32.994C622.37,33.03 621.652,33.06 621.169,33.084L621.169,32.323C622.014,32.323 622.611,32.142 622.961,31.78C623.312,31.418 623.487,30.73 623.487,29.716L623.487,9.108C623.487,8.021 623.324,7.218 622.998,6.699C622.672,6.18 622.062,5.92 621.169,5.92L621.169,5.16C621.941,5.232 622.69,5.269 623.414,5.269C624.404,5.269 625.346,5.226 626.239,5.142C627.133,5.057 627.954,4.93 628.702,4.761Z" style="fill:rgb(115,87,76);fill-rule:nonzero;"/>
            <path d="M648.151,33.338C646.533,33.338 645.362,32.915 644.638,32.07C643.914,31.225 643.551,30.199 643.551,28.991C643.551,27.953 643.787,27.108 644.258,26.456C644.729,25.804 645.338,25.267 646.087,24.844C646.835,24.422 647.626,24.072 648.459,23.794C649.292,23.516 650.089,23.239 650.849,22.961C651.61,22.683 652.226,22.363 652.697,22.001C653.167,21.639 653.403,21.18 653.403,20.625L653.403,17.8C653.403,17.172 653.3,16.611 653.095,16.116C652.89,15.621 652.576,15.241 652.153,14.975C651.731,14.709 651.181,14.577 650.505,14.577C650.022,14.577 649.54,14.643 649.057,14.776C648.574,14.909 648.175,15.132 647.861,15.446C648.538,15.687 649.063,16.055 649.437,16.55C649.811,17.045 649.998,17.607 649.998,18.235C649.998,19.056 649.715,19.707 649.147,20.19C648.58,20.673 647.91,20.915 647.137,20.915C646.268,20.915 645.61,20.643 645.163,20.1C644.717,19.557 644.493,18.899 644.493,18.126C644.493,17.426 644.668,16.846 645.018,16.387C645.368,15.929 645.857,15.494 646.485,15.084C647.161,14.697 647.976,14.395 648.93,14.178C649.884,13.961 650.916,13.852 652.027,13.852C653.137,13.852 654.139,13.967 655.033,14.196C655.926,14.426 656.675,14.842 657.278,15.446C657.834,16.001 658.196,16.683 658.365,17.492C658.534,18.301 658.618,19.321 658.618,20.553L658.618,30.404C658.618,30.983 658.679,31.394 658.799,31.635C658.92,31.877 659.125,31.998 659.415,31.998C659.657,31.998 659.886,31.937 660.103,31.816C660.321,31.696 660.526,31.551 660.719,31.382L661.081,31.998C660.574,32.432 659.989,32.764 659.325,32.994C658.661,33.223 657.918,33.338 657.097,33.338C655.648,33.338 654.689,33.042 654.218,32.45C653.747,31.859 653.499,31.177 653.475,30.404C652.872,31.394 652.129,32.13 651.248,32.613C650.367,33.096 649.334,33.338 648.151,33.338ZM650.94,31.02C651.399,31.02 651.827,30.911 652.226,30.694C652.624,30.476 653.017,30.09 653.403,29.535L653.403,22.11C653.113,22.593 652.709,22.997 652.19,23.323C651.67,23.649 651.139,23.999 650.596,24.374C650.053,24.748 649.6,25.225 649.238,25.804C648.876,26.384 648.694,27.156 648.694,28.122C648.694,29.16 648.912,29.903 649.346,30.35C649.781,30.796 650.312,31.02 650.94,31.02Z" style="fill:rgb(115,87,76);fill-rule:nonzero;"/>
            <path d="M669.158,39.893C667.661,39.893 666.327,39.766 665.156,39.513C663.985,39.259 663.067,38.873 662.403,38.354C661.739,37.835 661.407,37.201 661.407,36.452C661.407,35.704 661.745,35.034 662.421,34.442C663.097,33.851 664.099,33.386 665.427,33.048L665.753,33.627C665.294,33.99 664.962,34.382 664.757,34.804C664.552,35.227 664.449,35.668 664.449,36.126C664.449,37.141 664.914,37.919 665.844,38.462C666.773,39.006 668.035,39.277 669.629,39.277C670.715,39.277 671.687,39.133 672.544,38.843C673.401,38.553 674.077,38.118 674.572,37.539C675.067,36.959 675.315,36.247 675.315,35.402C675.315,34.678 675.049,34.068 674.518,33.573C673.987,33.078 672.924,32.831 671.331,32.831L669.085,32.831C668.095,32.831 667.232,32.722 666.496,32.505C665.759,32.287 665.186,31.943 664.775,31.472C664.365,31.002 664.16,30.404 664.16,29.68C664.16,28.665 664.558,27.772 665.355,26.999C666.152,26.227 667.335,25.502 668.904,24.826L669.266,25.116C668.808,25.406 668.379,25.714 667.981,26.04C667.582,26.366 667.383,26.782 667.383,27.289C667.383,28.062 667.866,28.448 668.832,28.448L672.78,28.448C674.784,28.448 676.45,28.816 677.778,29.553C679.106,30.289 679.77,31.515 679.77,33.229C679.77,34.412 679.389,35.511 678.629,36.525C677.868,37.539 676.703,38.354 675.134,38.97C673.564,39.585 671.572,39.893 669.158,39.893ZM669.52,25.37C667.468,25.37 665.753,24.905 664.377,23.975C663.001,23.046 662.313,21.591 662.313,19.611C662.313,17.607 663.001,16.146 664.377,15.229C665.753,14.311 667.468,13.852 669.52,13.852C671.596,13.852 673.317,14.311 674.681,15.229C676.045,16.146 676.727,17.607 676.727,19.611C676.727,21.591 676.045,23.046 674.681,23.975C673.317,24.905 671.596,25.37 669.52,25.37ZM669.52,24.718C670.172,24.718 670.679,24.349 671.041,23.613C671.403,22.877 671.584,21.543 671.584,19.611C671.584,17.679 671.403,16.345 671.041,15.609C670.679,14.872 670.172,14.504 669.52,14.504C668.892,14.504 668.391,14.872 668.017,15.609C667.643,16.345 667.455,17.679 667.455,19.611C667.455,21.543 667.643,22.877 668.017,23.613C668.391,24.349 668.892,24.718 669.52,24.718ZM675.17,16.967L674.446,16.713C674.808,15.772 675.393,14.987 676.202,14.359C677.011,13.731 677.886,13.418 678.828,13.418C679.601,13.418 680.186,13.629 680.585,14.051C680.983,14.474 681.182,15.023 681.182,15.699C681.182,16.424 680.989,16.961 680.603,17.311C680.216,17.661 679.782,17.836 679.299,17.836C678.888,17.836 678.508,17.691 678.158,17.402C677.808,17.112 677.609,16.671 677.56,16.08C677.512,15.488 677.717,14.721 678.176,13.78L678.43,13.997C677.512,14.335 676.824,14.727 676.365,15.174C675.906,15.621 675.508,16.218 675.17,16.967Z" style="fill:rgb(115,87,76);fill-rule:nonzero;"/>
            <path d="M686.868,5.015C687.883,5.015 688.685,5.262 689.277,5.757C689.868,6.252 690.164,6.935 690.164,7.804C690.164,8.673 689.868,9.355 689.277,9.85C688.685,10.345 687.883,10.593 686.868,10.593C685.854,10.593 685.051,10.345 684.46,9.85C683.868,9.355 683.573,8.673 683.573,7.804C683.573,6.935 683.868,6.252 684.46,5.757C685.051,5.262 685.854,5.015 686.868,5.015ZM689.693,13.961L689.693,29.716C689.693,30.73 689.868,31.418 690.219,31.78C690.569,32.142 691.166,32.323 692.011,32.323L692.011,33.084C691.577,33.06 690.901,33.03 689.983,32.994C689.066,32.957 688.136,32.939 687.194,32.939C686.253,32.939 685.299,32.957 684.333,32.994C683.367,33.03 682.643,33.06 682.16,33.084L682.16,32.323C683.005,32.323 683.603,32.142 683.953,31.78C684.303,31.418 684.478,30.73 684.478,29.716L684.478,18.307C684.478,17.221 684.315,16.418 683.989,15.899C683.663,15.379 683.053,15.12 682.16,15.12L682.16,14.359C682.933,14.432 683.681,14.468 684.406,14.468C685.42,14.468 686.367,14.426 687.249,14.341C688.13,14.257 688.945,14.13 689.693,13.961Z" style="fill:rgb(115,87,76);fill-rule:nonzero;"/>
            <path d="M698.35,33.338C696.732,33.338 695.561,32.915 694.836,32.07C694.112,31.225 693.75,30.199 693.75,28.991C693.75,27.953 693.985,27.108 694.456,26.456C694.927,25.804 695.537,25.267 696.285,24.844C697.034,24.422 697.824,24.072 698.657,23.794C699.49,23.516 700.287,23.239 701.048,22.961C701.808,22.683 702.424,22.363 702.895,22.001C703.366,21.639 703.601,21.18 703.601,20.625L703.601,17.8C703.601,17.172 703.499,16.611 703.293,16.116C703.088,15.621 702.774,15.241 702.352,14.975C701.929,14.709 701.38,14.577 700.704,14.577C700.221,14.577 699.738,14.643 699.255,14.776C698.772,14.909 698.374,15.132 698.06,15.446C698.736,15.687 699.261,16.055 699.635,16.55C700.01,17.045 700.197,17.607 700.197,18.235C700.197,19.056 699.913,19.707 699.346,20.19C698.778,20.673 698.108,20.915 697.335,20.915C696.466,20.915 695.808,20.643 695.362,20.1C694.915,19.557 694.692,18.899 694.692,18.126C694.692,17.426 694.867,16.846 695.217,16.387C695.567,15.929 696.056,15.494 696.684,15.084C697.36,14.697 698.175,14.395 699.128,14.178C700.082,13.961 701.114,13.852 702.225,13.852C703.336,13.852 704.338,13.967 705.231,14.196C706.124,14.426 706.873,14.842 707.477,15.446C708.032,16.001 708.394,16.683 708.563,17.492C708.732,18.301 708.817,19.321 708.817,20.553L708.817,30.404C708.817,30.983 708.877,31.394 708.998,31.635C709.118,31.877 709.324,31.998 709.613,31.998C709.855,31.998 710.084,31.937 710.302,31.816C710.519,31.696 710.724,31.551 710.917,31.382L711.279,31.998C710.772,32.432 710.187,32.764 709.523,32.994C708.859,33.223 708.116,33.338 707.295,33.338C705.847,33.338 704.887,33.042 704.416,32.45C703.945,31.859 703.698,31.177 703.674,30.404C703.07,31.394 702.328,32.13 701.446,32.613C700.565,33.096 699.533,33.338 698.35,33.338ZM701.138,31.02C701.597,31.02 702.026,30.911 702.424,30.694C702.823,30.476 703.215,30.09 703.601,29.535L703.601,22.11C703.311,22.593 702.907,22.997 702.388,23.323C701.869,23.649 701.338,23.999 700.794,24.374C700.251,24.748 699.798,25.225 699.436,25.804C699.074,26.384 698.893,27.156 698.893,28.122C698.893,29.16 699.11,29.903 699.545,30.35C699.979,30.796 700.511,31.02 701.138,31.02Z" style="fill:rgb(115,87,76);fill-rule:nonzero;"/>
            <path d="M716.676,4.761C717.449,4.761 718.137,5.069 718.74,5.685C719.344,6.301 719.646,7.176 719.646,8.311C719.646,9.349 719.525,10.52 719.284,11.824C719.042,13.128 718.752,14.534 718.414,16.043C718.076,17.553 717.775,19.14 717.509,20.806C717.243,22.472 717.074,24.199 717.002,25.985L716.35,25.985C716.302,24.199 716.139,22.472 715.861,20.806C715.583,19.14 715.282,17.553 714.956,16.043C714.63,14.534 714.34,13.128 714.086,11.824C713.833,10.52 713.706,9.349 713.706,8.311C713.706,7.176 713.99,6.301 714.557,5.685C715.125,5.069 715.831,4.761 716.676,4.761ZM716.676,28.014C717.618,28.014 718.366,28.261 718.922,28.756C719.477,29.251 719.755,29.933 719.755,30.802C719.755,31.672 719.477,32.354 718.922,32.849C718.366,33.344 717.618,33.591 716.676,33.591C715.734,33.591 714.986,33.344 714.43,32.849C713.875,32.354 713.597,31.672 713.597,30.802C713.597,29.933 713.875,29.251 714.43,28.756C714.986,28.261 715.734,28.014 716.676,28.014Z" style="fill:rgb(115,87,76);fill-rule:nonzero;"/>
        </g>
    </g>
</svg>
